G04 #@! TF.FileFunction,Copper,L2,Bot,Signal*
%FSLAX46Y46*%
G04 Gerber Fmt 4.6, Leading zero omitted, Abs format (unit mm)*
G04 Created by KiCad (PCBNEW 4.0.6) date 01/13/18 12:32:24*
%MOMM*%
%LPD*%
G01*
G04 APERTURE LIST*
%ADD10C,0.100000*%
%ADD11R,7.875000X2.000000*%
%ADD12R,1.200000X0.750000*%
%ADD13R,1.300000X1.500000*%
%ADD14R,1.700000X1.700000*%
%ADD15O,1.700000X1.700000*%
%ADD16O,0.950000X1.250000*%
%ADD17O,1.550000X1.000000*%
%ADD18R,0.800000X0.900000*%
%ADD19R,0.900000X0.500000*%
%ADD20R,0.500000X0.900000*%
%ADD21R,0.600000X0.450000*%
%ADD22R,0.850000X0.850000*%
%ADD23R,0.450000X1.750000*%
%ADD24R,2.500000X1.100000*%
%ADD25O,2.500000X1.100000*%
%ADD26O,1.100000X2.500000*%
%ADD27R,1.000000X0.700000*%
%ADD28C,0.600000*%
%ADD29C,0.250000*%
%ADD30C,0.254000*%
G04 APERTURE END LIST*
D10*
D11*
X37877500Y-40640000D03*
X49752500Y-40640000D03*
D12*
X40325000Y-36830000D03*
X42225000Y-36830000D03*
X47940000Y-36830000D03*
X46040000Y-36830000D03*
X59370000Y-46990000D03*
X57470000Y-46990000D03*
X59370000Y-45720000D03*
X57470000Y-45720000D03*
X66995000Y-33020000D03*
X68895000Y-33020000D03*
X66995000Y-34290000D03*
X68895000Y-34290000D03*
X76520000Y-100330000D03*
X78420000Y-100330000D03*
D13*
X67310000Y-97870000D03*
X67310000Y-95170000D03*
X64770000Y-97870000D03*
X64770000Y-95170000D03*
D14*
X63500000Y-92710000D03*
D15*
X60960000Y-92710000D03*
X58420000Y-92710000D03*
X55880000Y-92710000D03*
D14*
X73660000Y-39370000D03*
D15*
X76200000Y-39370000D03*
X78740000Y-39370000D03*
X81280000Y-39370000D03*
X83820000Y-39370000D03*
X86360000Y-39370000D03*
D14*
X34290000Y-101600000D03*
D15*
X36830000Y-101600000D03*
D14*
X86360000Y-101600000D03*
D15*
X83820000Y-101600000D03*
D16*
X85010000Y-63460000D03*
X85010000Y-58460000D03*
D17*
X87710000Y-64460000D03*
X87710000Y-57460000D03*
D18*
X75880000Y-44815000D03*
X73980000Y-44815000D03*
X74930000Y-42815000D03*
X75880000Y-53070000D03*
X73980000Y-53070000D03*
X74930000Y-51070000D03*
D19*
X75565000Y-78855000D03*
X75565000Y-77355000D03*
D20*
X75680000Y-46990000D03*
X74180000Y-46990000D03*
X75680000Y-48895000D03*
X74180000Y-48895000D03*
X84340000Y-95250000D03*
X85840000Y-95250000D03*
X84340000Y-96520000D03*
X85840000Y-96520000D03*
X72910000Y-93980000D03*
X74410000Y-93980000D03*
X72910000Y-95250000D03*
X74410000Y-95250000D03*
X72910000Y-96520000D03*
X74410000Y-96520000D03*
X72910000Y-97790000D03*
X74410000Y-97790000D03*
X41390000Y-101600000D03*
X39890000Y-101600000D03*
X84340000Y-97790000D03*
X85840000Y-97790000D03*
D21*
X45500000Y-101600000D03*
X43400000Y-101600000D03*
D22*
X63500000Y-59690000D03*
X48260000Y-48895000D03*
X60325000Y-59690000D03*
X40894000Y-51562000D03*
D23*
X64550000Y-41065000D03*
X63900000Y-41065000D03*
X63250000Y-41065000D03*
X62600000Y-41065000D03*
X61950000Y-41065000D03*
X61300000Y-41065000D03*
X60650000Y-41065000D03*
X60000000Y-41065000D03*
X59350000Y-41065000D03*
X58700000Y-41065000D03*
X58050000Y-41065000D03*
X57400000Y-41065000D03*
X56750000Y-41065000D03*
X56100000Y-41065000D03*
X56100000Y-33865000D03*
X56750000Y-33865000D03*
X57400000Y-33865000D03*
X58050000Y-33865000D03*
X58700000Y-33865000D03*
X59350000Y-33865000D03*
X60000000Y-33865000D03*
X60650000Y-33865000D03*
X61300000Y-33865000D03*
X61950000Y-33865000D03*
X62600000Y-33865000D03*
X63250000Y-33865000D03*
X63900000Y-33865000D03*
X64550000Y-33865000D03*
D24*
X52640000Y-46990000D03*
D25*
X52640000Y-48990000D03*
X52640000Y-50990000D03*
X52640000Y-52990000D03*
X52640000Y-54990000D03*
X52640000Y-56990000D03*
X52640000Y-58990000D03*
X52640000Y-60990000D03*
X68040000Y-60990000D03*
X67940000Y-58990000D03*
X68040000Y-56990000D03*
X68040000Y-54990000D03*
X68040000Y-52990000D03*
X68040000Y-50990000D03*
X68040000Y-48990000D03*
X68040000Y-46990000D03*
D26*
X55330000Y-62690000D03*
X57330000Y-62690000D03*
X59330000Y-62690000D03*
X61330000Y-62690000D03*
X63330000Y-62690000D03*
X65330000Y-62690000D03*
D27*
X76540000Y-95093000D03*
X76540000Y-96045000D03*
X76540000Y-96995000D03*
X76540000Y-97947000D03*
X80940000Y-97947000D03*
X80940000Y-96995000D03*
X80940000Y-96045000D03*
X80940000Y-95093000D03*
D28*
X34036000Y-74676000D03*
X34544000Y-78486000D03*
X34290000Y-73406000D03*
X58420000Y-76200000D03*
X63754000Y-70866000D03*
X31242000Y-73660000D03*
X71628000Y-91948000D03*
X83820000Y-37465000D03*
X75565000Y-76200000D03*
X63500000Y-76200000D03*
X63500000Y-73660000D03*
X41275000Y-45085000D03*
X41275000Y-79375000D03*
X45720000Y-73025000D03*
X46355000Y-52705000D03*
X38100000Y-60960000D03*
X58420000Y-60452000D03*
X57150000Y-48006000D03*
X50165000Y-48006000D03*
X73660000Y-35560000D03*
X77216000Y-53594000D03*
X79502000Y-53594000D03*
X42926000Y-70612000D03*
X43688000Y-72390000D03*
X38862000Y-46990000D03*
X41148000Y-46990000D03*
X72644000Y-62738000D03*
X69596000Y-63500000D03*
X80010000Y-103632000D03*
X80010000Y-100330000D03*
X38862000Y-61976000D03*
X45974000Y-66294000D03*
X45974000Y-68580000D03*
X42164000Y-33274000D03*
X69215000Y-80960000D03*
X71882000Y-79502000D03*
X54356000Y-32512000D03*
X71374000Y-33020000D03*
X57404000Y-45720000D03*
X61976000Y-46482000D03*
X36830000Y-80518000D03*
X39370000Y-76200000D03*
X60325000Y-38735000D03*
X48895000Y-67945000D03*
X43815000Y-78740000D03*
X57150000Y-69850000D03*
X76200000Y-69850000D03*
X59690000Y-44450000D03*
X67310000Y-44450000D03*
X40640000Y-73025000D03*
X36830000Y-73025000D03*
X45085000Y-51435000D03*
X52070000Y-101600000D03*
X72390000Y-71755000D03*
X69850000Y-71755000D03*
X75565000Y-80010000D03*
X71120000Y-74930000D03*
X70485000Y-95250000D03*
X70485000Y-92710000D03*
X63246000Y-68326000D03*
X60452000Y-66294000D03*
X81915000Y-61595000D03*
X81915000Y-60325000D03*
X73025000Y-53340000D03*
X73660000Y-99695000D03*
X73660000Y-90805000D03*
X68580000Y-71120000D03*
X69215000Y-68580000D03*
X48895000Y-76200000D03*
X78105000Y-97790000D03*
X80645000Y-92710000D03*
X78740000Y-62230000D03*
X76200000Y-62230000D03*
X78740000Y-45720000D03*
X81280000Y-45720000D03*
X41275000Y-43180000D03*
X38735000Y-43180000D03*
X78740000Y-90170000D03*
X76200000Y-54610000D03*
X40894000Y-51562000D03*
D29*
X34036000Y-77978000D02*
X34036000Y-74676000D01*
X34544000Y-78486000D02*
X34036000Y-77978000D01*
X63754000Y-70866000D02*
X58420000Y-76200000D01*
X30988000Y-73660000D02*
X31242000Y-73660000D01*
X83820000Y-39370000D02*
X83820000Y-37465000D01*
X83820000Y-37465000D02*
X83820000Y-31750000D01*
X82550000Y-30480000D02*
X66040000Y-30480000D01*
X83820000Y-31750000D02*
X82550000Y-30480000D01*
X75565000Y-77355000D02*
X75565000Y-76200000D01*
X63500000Y-76200000D02*
X63500000Y-89535000D01*
X63500000Y-89535000D02*
X62865000Y-90170000D01*
X63500000Y-73660000D02*
X63500000Y-76200000D01*
X63500000Y-92710000D02*
X63500000Y-90805000D01*
X63500000Y-90805000D02*
X62865000Y-90170000D01*
X41275000Y-88900000D02*
X41275000Y-79375000D01*
X62865000Y-90170000D02*
X42545000Y-90170000D01*
X42545000Y-90170000D02*
X41275000Y-88900000D01*
X46355000Y-52705000D02*
X46355000Y-59690000D01*
X46355000Y-59690000D02*
X47655000Y-60990000D01*
X41275000Y-79375000D02*
X41910000Y-78740000D01*
X44450000Y-73025000D02*
X45720000Y-73025000D01*
X41910000Y-75565000D02*
X44450000Y-73025000D01*
X41910000Y-78740000D02*
X41910000Y-75565000D01*
X66995000Y-33020000D02*
X66995000Y-31435000D01*
X66995000Y-31435000D02*
X66040000Y-30480000D01*
X46355000Y-46355000D02*
X46355000Y-52705000D01*
X44450000Y-45085000D02*
X46355000Y-46355000D01*
X33655000Y-45085000D02*
X41275000Y-45085000D01*
X66040000Y-30480000D02*
X41275000Y-30480000D01*
X41275000Y-30480000D02*
X38100000Y-33655000D01*
X38100000Y-33655000D02*
X38100000Y-36830000D01*
X38100000Y-36830000D02*
X37465000Y-37465000D01*
X37465000Y-37465000D02*
X33020000Y-37465000D01*
X33020000Y-37465000D02*
X32385000Y-38100000D01*
X32385000Y-38100000D02*
X32385000Y-43815000D01*
X32385000Y-43815000D02*
X33655000Y-45085000D01*
X41275000Y-45085000D02*
X44450000Y-45085000D01*
X66995000Y-34290000D02*
X66995000Y-33020000D01*
X57400000Y-33865000D02*
X57400000Y-35175000D01*
X66040000Y-35560000D02*
X66995000Y-34605000D01*
X57785000Y-35560000D02*
X66040000Y-35560000D01*
X57400000Y-35175000D02*
X57785000Y-35560000D01*
X66995000Y-34605000D02*
X66995000Y-34290000D01*
X38100000Y-60960000D02*
X38130000Y-60990000D01*
X38130000Y-60990000D02*
X47655000Y-60990000D01*
X47655000Y-60990000D02*
X53340000Y-60990000D01*
X57150000Y-48006000D02*
X57150000Y-59182000D01*
X57150000Y-59182000D02*
X58420000Y-60452000D01*
X57150000Y-48006000D02*
X50165000Y-48006000D01*
X54356000Y-32512000D02*
X54356000Y-42606000D01*
X54356000Y-42606000D02*
X57470000Y-45720000D01*
X73152000Y-33020000D02*
X71374000Y-33020000D01*
X73660000Y-33528000D02*
X73152000Y-33020000D01*
X73660000Y-35560000D02*
X73660000Y-33528000D01*
X79502000Y-53594000D02*
X77216000Y-53594000D01*
X42926000Y-71628000D02*
X42926000Y-70612000D01*
X43688000Y-72390000D02*
X42926000Y-71628000D01*
X38862000Y-46990000D02*
X41148000Y-46990000D01*
X71882000Y-63500000D02*
X69596000Y-63500000D01*
X71882000Y-63500000D02*
X72644000Y-62738000D01*
X78420000Y-100330000D02*
X80010000Y-100330000D01*
X86360000Y-103886000D02*
X86360000Y-101600000D01*
X85852000Y-104394000D02*
X86360000Y-103886000D01*
X80772000Y-104394000D02*
X85852000Y-104394000D01*
X80010000Y-103632000D02*
X80772000Y-104394000D01*
X45974000Y-68580000D02*
X45974000Y-66294000D01*
X73660000Y-39370000D02*
X72390000Y-39370000D01*
X73660000Y-39370000D02*
X73660000Y-38100000D01*
X42225000Y-33335000D02*
X42164000Y-33274000D01*
X42225000Y-36830000D02*
X42225000Y-33335000D01*
X42225000Y-36830000D02*
X46040000Y-36830000D01*
X57470000Y-46990000D02*
X57470000Y-45720000D01*
X80940000Y-96995000D02*
X81755000Y-96995000D01*
X81755000Y-96995000D02*
X81788000Y-97028000D01*
X69342000Y-81026000D02*
X69281000Y-81026000D01*
X69281000Y-81026000D02*
X69215000Y-80960000D01*
X54356000Y-32512000D02*
X57912000Y-32512000D01*
X68895000Y-33020000D02*
X71374000Y-33020000D01*
X58050000Y-33865000D02*
X58050000Y-32512000D01*
X58050000Y-32512000D02*
X57912000Y-32512000D01*
X60000000Y-33865000D02*
X60000000Y-32512000D01*
X60000000Y-32512000D02*
X59944000Y-32512000D01*
X62600000Y-33865000D02*
X62600000Y-32374000D01*
X62462000Y-32512000D02*
X59944000Y-32512000D01*
X59944000Y-32512000D02*
X57912000Y-32512000D01*
X62600000Y-32374000D02*
X62462000Y-32512000D01*
X57404000Y-45720000D02*
X57470000Y-45720000D01*
X60650000Y-41065000D02*
X60650000Y-42108000D01*
X61468000Y-45974000D02*
X61976000Y-46482000D01*
X61468000Y-42926000D02*
X61468000Y-45974000D01*
X60650000Y-42108000D02*
X61468000Y-42926000D01*
X68895000Y-33020000D02*
X68895000Y-34290000D01*
X38100000Y-80518000D02*
X36830000Y-80518000D01*
X39370000Y-79248000D02*
X38100000Y-80518000D01*
X39370000Y-76200000D02*
X39370000Y-79248000D01*
X40325000Y-36830000D02*
X40325000Y-38192500D01*
X40325000Y-38192500D02*
X37877500Y-40640000D01*
X40325000Y-36830000D02*
X40325000Y-32700000D01*
X64550000Y-31530000D02*
X64550000Y-33865000D01*
X64135000Y-31115000D02*
X64550000Y-31530000D01*
X41910000Y-31115000D02*
X64135000Y-31115000D01*
X40325000Y-32700000D02*
X41910000Y-31115000D01*
X38100000Y-40417500D02*
X37877500Y-40640000D01*
X36195000Y-40640000D02*
X37877500Y-40640000D01*
X47940000Y-36830000D02*
X47940000Y-38827500D01*
X47940000Y-38827500D02*
X49752500Y-40640000D01*
X47940000Y-36830000D02*
X47940000Y-33975000D01*
X63900000Y-32150000D02*
X63900000Y-33865000D01*
X63500000Y-31750000D02*
X63900000Y-32150000D01*
X50165000Y-31750000D02*
X63500000Y-31750000D01*
X47940000Y-33975000D02*
X50165000Y-31750000D01*
X47940000Y-36830000D02*
X48260000Y-36830000D01*
X50800000Y-40640000D02*
X49752500Y-40640000D01*
X62230000Y-64262000D02*
X61214000Y-65278000D01*
X58674000Y-69342000D02*
X58166000Y-69850000D01*
X58674000Y-65786000D02*
X58674000Y-69342000D01*
X59182000Y-65278000D02*
X58674000Y-65786000D01*
X61214000Y-65278000D02*
X59182000Y-65278000D01*
X60000000Y-41065000D02*
X60000000Y-39060000D01*
X60000000Y-39060000D02*
X60325000Y-38735000D01*
X47625000Y-69215000D02*
X48895000Y-67945000D01*
X47625000Y-78740000D02*
X47625000Y-69215000D01*
X43815000Y-78740000D02*
X47625000Y-78740000D01*
X67945000Y-93980000D02*
X67310000Y-93345000D01*
X67310000Y-71120000D02*
X66040000Y-69850000D01*
X67310000Y-93345000D02*
X67310000Y-71120000D01*
X80940000Y-97947000D02*
X80167000Y-97947000D01*
X72910000Y-93460000D02*
X72910000Y-93980000D01*
X73660000Y-92710000D02*
X72910000Y-93460000D01*
X77470000Y-92710000D02*
X73660000Y-92710000D01*
X78105000Y-93345000D02*
X77470000Y-92710000D01*
X78105000Y-95885000D02*
X78105000Y-93345000D01*
X80167000Y-97947000D02*
X78105000Y-95885000D01*
X67945000Y-93980000D02*
X65405000Y-93980000D01*
X65405000Y-93980000D02*
X64770000Y-94615000D01*
X64770000Y-94615000D02*
X64770000Y-95170000D01*
X72910000Y-93980000D02*
X67945000Y-93980000D01*
X67945000Y-93980000D02*
X67310000Y-94615000D01*
X67310000Y-94615000D02*
X67310000Y-95170000D01*
X59370000Y-46990000D02*
X59370000Y-45720000D01*
X59370000Y-45720000D02*
X60325000Y-45720000D01*
X60325000Y-45720000D02*
X60960000Y-45085000D01*
X60000000Y-41065000D02*
X60000000Y-42220000D01*
X60960000Y-43180000D02*
X60960000Y-45085000D01*
X60000000Y-42220000D02*
X60960000Y-43180000D01*
X60960000Y-45085000D02*
X60960000Y-58420000D01*
X60960000Y-58420000D02*
X62230000Y-59690000D01*
X62230000Y-59690000D02*
X62230000Y-64262000D01*
X57150000Y-69850000D02*
X58166000Y-69850000D01*
X58166000Y-69850000D02*
X63500000Y-69850000D01*
X66040000Y-69850000D02*
X76200000Y-69850000D01*
X63500000Y-69850000D02*
X66040000Y-69850000D01*
X73980000Y-44815000D02*
X67675000Y-44815000D01*
X53340000Y-45720000D02*
X53340000Y-46990000D01*
X54610000Y-44450000D02*
X53340000Y-45720000D01*
X59690000Y-44450000D02*
X54610000Y-44450000D01*
X67675000Y-44815000D02*
X67310000Y-44450000D01*
X36830000Y-73025000D02*
X40640000Y-73025000D01*
X62230000Y-100330000D02*
X63500000Y-101600000D01*
X40005000Y-100330000D02*
X62230000Y-100330000D01*
X35560000Y-95885000D02*
X40005000Y-100330000D01*
X35560000Y-52705000D02*
X35560000Y-95885000D01*
X38100000Y-50165000D02*
X35560000Y-52705000D01*
X44450000Y-50165000D02*
X38100000Y-50165000D01*
X45085000Y-50800000D02*
X44450000Y-50165000D01*
X45085000Y-51435000D02*
X45085000Y-50800000D01*
X45500000Y-101600000D02*
X52070000Y-101600000D01*
X52070000Y-101600000D02*
X63500000Y-101600000D01*
X63500000Y-101600000D02*
X75565000Y-101600000D01*
X75565000Y-101600000D02*
X76520000Y-100645000D01*
X76520000Y-100645000D02*
X76520000Y-100330000D01*
X76520000Y-100330000D02*
X76520000Y-97967000D01*
X76520000Y-97967000D02*
X76540000Y-97947000D01*
X84340000Y-97790000D02*
X84340000Y-97905000D01*
X84340000Y-97905000D02*
X80010000Y-102235000D01*
X80010000Y-102235000D02*
X78425000Y-102235000D01*
X78425000Y-102235000D02*
X76520000Y-100330000D01*
X67310000Y-97870000D02*
X67310000Y-99060000D01*
X70485000Y-96520000D02*
X72910000Y-96520000D01*
X69850000Y-97155000D02*
X70485000Y-96520000D01*
X69850000Y-99060000D02*
X69850000Y-97155000D01*
X69215000Y-99695000D02*
X69850000Y-99060000D01*
X67945000Y-99695000D02*
X69215000Y-99695000D01*
X67310000Y-99060000D02*
X67945000Y-99695000D01*
X72910000Y-97790000D02*
X71755000Y-97790000D01*
X64770000Y-99695000D02*
X65405000Y-100330000D01*
X65405000Y-100330000D02*
X69850000Y-100330000D01*
X69850000Y-100330000D02*
X71120000Y-99060000D01*
X71120000Y-99060000D02*
X71120000Y-98425000D01*
X71120000Y-98425000D02*
X71755000Y-97790000D01*
X64770000Y-99695000D02*
X64770000Y-97870000D01*
X72390000Y-71755000D02*
X69850000Y-71755000D01*
X75565000Y-80010000D02*
X75565000Y-78855000D01*
X72910000Y-95250000D02*
X70485000Y-95250000D01*
X70485000Y-75565000D02*
X70485000Y-92710000D01*
X70485000Y-75565000D02*
X71120000Y-74930000D01*
X62484000Y-68326000D02*
X63246000Y-68326000D01*
X60452000Y-66294000D02*
X62484000Y-68326000D01*
X36830000Y-101600000D02*
X39890000Y-101600000D01*
X83820000Y-101600000D02*
X83820000Y-100330000D01*
X85840000Y-98945000D02*
X85840000Y-97790000D01*
X85725000Y-99060000D02*
X85840000Y-98945000D01*
X85090000Y-99060000D02*
X85725000Y-99060000D01*
X83820000Y-100330000D02*
X85090000Y-99060000D01*
X56750000Y-34925000D02*
X56750000Y-35795000D01*
X57150000Y-36195000D02*
X57785000Y-36195000D01*
X56750000Y-35795000D02*
X57150000Y-36195000D01*
X56750000Y-33865000D02*
X56750000Y-34925000D01*
X57785000Y-36195000D02*
X76200000Y-36195000D01*
X76200000Y-36195000D02*
X77470000Y-37465000D01*
X77470000Y-37465000D02*
X77470000Y-40640000D01*
X77470000Y-40640000D02*
X80010000Y-43180000D01*
X80010000Y-43180000D02*
X82550000Y-43180000D01*
X82550000Y-43180000D02*
X83185000Y-43815000D01*
X83185000Y-43815000D02*
X83185000Y-60325000D01*
X83185000Y-60325000D02*
X81915000Y-61595000D01*
X56100000Y-35560000D02*
X56100000Y-36415000D01*
X57150000Y-37465000D02*
X57785000Y-37465000D01*
X56100000Y-36415000D02*
X57150000Y-37465000D01*
X69850000Y-37465000D02*
X71120000Y-38735000D01*
X57785000Y-37465000D02*
X69850000Y-37465000D01*
X81915000Y-60325000D02*
X81915000Y-50800000D01*
X81915000Y-50800000D02*
X78105000Y-46990000D01*
X78105000Y-46990000D02*
X78105000Y-42545000D01*
X78105000Y-42545000D02*
X76835000Y-41275000D01*
X76835000Y-41275000D02*
X72390000Y-41275000D01*
X72390000Y-41275000D02*
X71120000Y-40005000D01*
X71120000Y-40005000D02*
X71120000Y-38735000D01*
X56100000Y-35560000D02*
X56100000Y-33865000D01*
X75680000Y-46990000D02*
X75680000Y-45015000D01*
X75680000Y-45015000D02*
X75880000Y-44815000D01*
X63250000Y-41065000D02*
X63250000Y-38350000D01*
X67580000Y-42815000D02*
X74930000Y-42815000D01*
X66675000Y-41910000D02*
X67580000Y-42815000D01*
X66675000Y-39370000D02*
X66675000Y-41910000D01*
X65405000Y-38100000D02*
X66675000Y-39370000D01*
X63500000Y-38100000D02*
X65405000Y-38100000D01*
X63250000Y-38350000D02*
X63500000Y-38100000D01*
X74180000Y-48895000D02*
X74295000Y-48895000D01*
X74295000Y-48895000D02*
X74930000Y-48260000D01*
X74930000Y-48260000D02*
X74930000Y-42815000D01*
X75680000Y-48895000D02*
X75680000Y-49645000D01*
X75880000Y-49845000D02*
X75880000Y-53070000D01*
X75680000Y-49645000D02*
X75880000Y-49845000D01*
X73295000Y-53070000D02*
X73980000Y-53070000D01*
X73025000Y-53340000D02*
X73295000Y-53070000D01*
X74180000Y-46990000D02*
X71120000Y-46990000D01*
X71120000Y-46990000D02*
X70485000Y-46355000D01*
X63900000Y-41065000D02*
X63900000Y-38970000D01*
X71390000Y-51070000D02*
X74930000Y-51070000D01*
X70485000Y-50165000D02*
X71390000Y-51070000D01*
X70485000Y-46355000D02*
X70485000Y-50165000D01*
X69850000Y-45720000D02*
X70485000Y-46355000D01*
X66675000Y-45720000D02*
X69850000Y-45720000D01*
X65405000Y-44450000D02*
X66675000Y-45720000D01*
X65405000Y-39370000D02*
X65405000Y-44450000D01*
X64770000Y-38735000D02*
X65405000Y-39370000D01*
X64135000Y-38735000D02*
X64770000Y-38735000D01*
X63900000Y-38970000D02*
X64135000Y-38735000D01*
X67340000Y-56990000D02*
X72865000Y-56990000D01*
X74930000Y-99060000D02*
X74930000Y-97790000D01*
X74295000Y-99695000D02*
X74930000Y-99060000D01*
X73660000Y-99695000D02*
X74295000Y-99695000D01*
X73660000Y-73660000D02*
X73660000Y-90805000D01*
X73025000Y-73025000D02*
X73660000Y-73660000D01*
X69215000Y-73025000D02*
X73025000Y-73025000D01*
X68580000Y-72390000D02*
X69215000Y-73025000D01*
X68580000Y-71120000D02*
X68580000Y-72390000D01*
X74295000Y-63500000D02*
X69215000Y-68580000D01*
X74295000Y-58420000D02*
X74295000Y-63500000D01*
X72865000Y-56990000D02*
X74295000Y-58420000D01*
X76540000Y-96995000D02*
X75725000Y-96995000D01*
X75725000Y-96995000D02*
X74930000Y-97790000D01*
X74930000Y-97790000D02*
X74410000Y-97790000D01*
X57330000Y-61990000D02*
X57330000Y-67765000D01*
X57330000Y-67765000D02*
X48895000Y-76200000D01*
X80940000Y-95093000D02*
X84183000Y-95093000D01*
X84183000Y-95093000D02*
X84340000Y-95250000D01*
X80940000Y-96045000D02*
X82710000Y-96045000D01*
X83185000Y-96520000D02*
X84340000Y-96520000D01*
X82710000Y-96045000D02*
X83185000Y-96520000D01*
X74410000Y-93980000D02*
X74410000Y-95250000D01*
X76540000Y-95093000D02*
X74567000Y-95093000D01*
X74567000Y-95093000D02*
X74410000Y-95250000D01*
X67340000Y-52990000D02*
X70770000Y-52990000D01*
X78105000Y-97155000D02*
X76995000Y-96045000D01*
X78105000Y-97790000D02*
X78105000Y-97155000D01*
X80645000Y-64135000D02*
X80645000Y-92710000D01*
X78740000Y-62230000D02*
X80645000Y-64135000D01*
X74930000Y-60960000D02*
X76200000Y-62230000D01*
X74930000Y-57150000D02*
X74930000Y-60960000D01*
X70770000Y-52990000D02*
X74930000Y-57150000D01*
X76995000Y-96045000D02*
X76540000Y-96045000D01*
X76540000Y-96045000D02*
X75405000Y-96045000D01*
X74930000Y-96520000D02*
X74410000Y-96520000D01*
X75405000Y-96045000D02*
X74930000Y-96520000D01*
X41390000Y-101600000D02*
X43400000Y-101600000D01*
X67340000Y-46990000D02*
X66675000Y-46990000D01*
X64550000Y-44865000D02*
X64550000Y-41065000D01*
X66675000Y-46990000D02*
X64550000Y-44865000D01*
X81280000Y-45720000D02*
X78740000Y-45720000D01*
X67340000Y-48990000D02*
X66135000Y-48990000D01*
X61950000Y-44805000D02*
X61950000Y-41065000D01*
X66135000Y-48990000D02*
X61950000Y-44805000D01*
X38735000Y-43180000D02*
X41275000Y-43180000D01*
X77470000Y-88900000D02*
X78740000Y-90170000D01*
X77470000Y-55880000D02*
X77470000Y-88900000D01*
X76200000Y-54610000D02*
X77470000Y-55880000D01*
D30*
G36*
X47402599Y-33437599D02*
X47237852Y-33684161D01*
X47180000Y-33975000D01*
X47180000Y-35837666D01*
X47104683Y-35851838D01*
X47001354Y-35918329D01*
X46999698Y-35916673D01*
X46766309Y-35820000D01*
X46325750Y-35820000D01*
X46167000Y-35978750D01*
X46167000Y-36703000D01*
X46187000Y-36703000D01*
X46187000Y-36957000D01*
X46167000Y-36957000D01*
X46167000Y-37681250D01*
X46325750Y-37840000D01*
X46766309Y-37840000D01*
X46999698Y-37743327D01*
X47001068Y-37741957D01*
X47088110Y-37801431D01*
X47180000Y-37820039D01*
X47180000Y-38827500D01*
X47212833Y-38992560D01*
X45815000Y-38992560D01*
X45579683Y-39036838D01*
X45363559Y-39175910D01*
X45218569Y-39388110D01*
X45167560Y-39640000D01*
X45167560Y-41640000D01*
X45211838Y-41875317D01*
X45350910Y-42091441D01*
X45563110Y-42236431D01*
X45815000Y-42287440D01*
X53690000Y-42287440D01*
X53925317Y-42243162D01*
X54141441Y-42104090D01*
X54286431Y-41891890D01*
X54337440Y-41640000D01*
X54337440Y-39640000D01*
X54293162Y-39404683D01*
X54154090Y-39188559D01*
X53941890Y-39043569D01*
X53690000Y-38992560D01*
X49179862Y-38992560D01*
X48700000Y-38512698D01*
X48700000Y-37822334D01*
X48775317Y-37808162D01*
X48991441Y-37669090D01*
X49136431Y-37456890D01*
X49187440Y-37205000D01*
X49187440Y-36455000D01*
X49143162Y-36219683D01*
X49004090Y-36003559D01*
X48791890Y-35858569D01*
X48700000Y-35839961D01*
X48700000Y-34289802D01*
X50479802Y-32510000D01*
X55448284Y-32510000D01*
X55423559Y-32525910D01*
X55278569Y-32738110D01*
X55227560Y-32990000D01*
X55227560Y-34740000D01*
X55271838Y-34975317D01*
X55340000Y-35081244D01*
X55340000Y-36415000D01*
X55397852Y-36705839D01*
X55562599Y-36952401D01*
X56612599Y-38002401D01*
X56859160Y-38167148D01*
X57150000Y-38225000D01*
X59524367Y-38225000D01*
X59390162Y-38548201D01*
X59390090Y-38631117D01*
X59297852Y-38769161D01*
X59240000Y-39060000D01*
X59240000Y-39542560D01*
X59125000Y-39542560D01*
X59021329Y-39562067D01*
X58925000Y-39542560D01*
X58475000Y-39542560D01*
X58371329Y-39562067D01*
X58275000Y-39542560D01*
X57825000Y-39542560D01*
X57721329Y-39562067D01*
X57625000Y-39542560D01*
X57175000Y-39542560D01*
X57071329Y-39562067D01*
X56975000Y-39542560D01*
X56525000Y-39542560D01*
X56421329Y-39562067D01*
X56325000Y-39542560D01*
X55875000Y-39542560D01*
X55639683Y-39586838D01*
X55423559Y-39725910D01*
X55278569Y-39938110D01*
X55227560Y-40190000D01*
X55227560Y-41940000D01*
X55271838Y-42175317D01*
X55410910Y-42391441D01*
X55623110Y-42536431D01*
X55875000Y-42587440D01*
X56325000Y-42587440D01*
X56428671Y-42567933D01*
X56525000Y-42587440D01*
X56975000Y-42587440D01*
X57078671Y-42567933D01*
X57175000Y-42587440D01*
X57625000Y-42587440D01*
X57728671Y-42567933D01*
X57825000Y-42587440D01*
X58275000Y-42587440D01*
X58378671Y-42567933D01*
X58475000Y-42587440D01*
X58925000Y-42587440D01*
X59028671Y-42567933D01*
X59125000Y-42587440D01*
X59349035Y-42587440D01*
X59462599Y-42757401D01*
X60200000Y-43494802D01*
X60200000Y-43649367D01*
X59876799Y-43515162D01*
X59504833Y-43514838D01*
X59161057Y-43656883D01*
X59127882Y-43690000D01*
X54610000Y-43690000D01*
X54319160Y-43747852D01*
X54072599Y-43912599D01*
X52802599Y-45182599D01*
X52637852Y-45429161D01*
X52580000Y-45720000D01*
X52580000Y-45792560D01*
X51390000Y-45792560D01*
X51154683Y-45836838D01*
X50938559Y-45975910D01*
X50793569Y-46188110D01*
X50785491Y-46228000D01*
X47100264Y-46228000D01*
X47100241Y-46205952D01*
X47071675Y-46137190D01*
X47057148Y-46064161D01*
X47015342Y-46001594D01*
X46986474Y-45932106D01*
X46933769Y-45879511D01*
X46892401Y-45817599D01*
X46829835Y-45775794D01*
X46776572Y-45722642D01*
X44871572Y-44452642D01*
X44802749Y-44424219D01*
X44740839Y-44382852D01*
X44667038Y-44368172D01*
X44597489Y-44339449D01*
X44523031Y-44339527D01*
X44450000Y-44325000D01*
X41837463Y-44325000D01*
X41805327Y-44292808D01*
X41461799Y-44150162D01*
X41089833Y-44149838D01*
X40746057Y-44291883D01*
X40712882Y-44325000D01*
X33969802Y-44325000D01*
X33145000Y-43500198D01*
X33145000Y-38414802D01*
X33334802Y-38225000D01*
X37465000Y-38225000D01*
X37755839Y-38167148D01*
X38002401Y-38002401D01*
X38637401Y-37367401D01*
X38802148Y-37120839D01*
X38860000Y-36830000D01*
X38860000Y-33969802D01*
X39565000Y-33264802D01*
X39565000Y-35837666D01*
X39489683Y-35851838D01*
X39273559Y-35990910D01*
X39128569Y-36203110D01*
X39077560Y-36455000D01*
X39077560Y-37205000D01*
X39121838Y-37440317D01*
X39260910Y-37656441D01*
X39473110Y-37801431D01*
X39565000Y-37820039D01*
X39565000Y-37877698D01*
X38450138Y-38992560D01*
X33940000Y-38992560D01*
X33704683Y-39036838D01*
X33488559Y-39175910D01*
X33343569Y-39388110D01*
X33292560Y-39640000D01*
X33292560Y-41640000D01*
X33336838Y-41875317D01*
X33475910Y-42091441D01*
X33688110Y-42236431D01*
X33940000Y-42287440D01*
X38446728Y-42287440D01*
X38206057Y-42386883D01*
X37942808Y-42649673D01*
X37800162Y-42993201D01*
X37799838Y-43365167D01*
X37941883Y-43708943D01*
X38204673Y-43972192D01*
X38548201Y-44114838D01*
X38920167Y-44115162D01*
X39263943Y-43973117D01*
X39297118Y-43940000D01*
X40712537Y-43940000D01*
X40744673Y-43972192D01*
X41088201Y-44114838D01*
X41460167Y-44115162D01*
X41803943Y-43973117D01*
X42067192Y-43710327D01*
X42209838Y-43366799D01*
X42210162Y-42994833D01*
X42068117Y-42651057D01*
X41805327Y-42387808D01*
X41563615Y-42287440D01*
X41815000Y-42287440D01*
X42050317Y-42243162D01*
X42266441Y-42104090D01*
X42411431Y-41891890D01*
X42462440Y-41640000D01*
X42462440Y-39640000D01*
X42418162Y-39404683D01*
X42279090Y-39188559D01*
X42066890Y-39043569D01*
X41815000Y-38992560D01*
X40599742Y-38992560D01*
X40862401Y-38729901D01*
X41027148Y-38483339D01*
X41085000Y-38192500D01*
X41085000Y-37822334D01*
X41160317Y-37808162D01*
X41263646Y-37741671D01*
X41265302Y-37743327D01*
X41498691Y-37840000D01*
X41939250Y-37840000D01*
X42098000Y-37681250D01*
X42098000Y-36957000D01*
X42352000Y-36957000D01*
X42352000Y-37681250D01*
X42510750Y-37840000D01*
X42951309Y-37840000D01*
X43184698Y-37743327D01*
X43363327Y-37564699D01*
X43460000Y-37331310D01*
X43460000Y-37115750D01*
X44805000Y-37115750D01*
X44805000Y-37331310D01*
X44901673Y-37564699D01*
X45080302Y-37743327D01*
X45313691Y-37840000D01*
X45754250Y-37840000D01*
X45913000Y-37681250D01*
X45913000Y-36957000D01*
X44963750Y-36957000D01*
X44805000Y-37115750D01*
X43460000Y-37115750D01*
X43301250Y-36957000D01*
X42352000Y-36957000D01*
X42098000Y-36957000D01*
X42078000Y-36957000D01*
X42078000Y-36703000D01*
X42098000Y-36703000D01*
X42098000Y-35978750D01*
X42352000Y-35978750D01*
X42352000Y-36703000D01*
X43301250Y-36703000D01*
X43460000Y-36544250D01*
X43460000Y-36328690D01*
X44805000Y-36328690D01*
X44805000Y-36544250D01*
X44963750Y-36703000D01*
X45913000Y-36703000D01*
X45913000Y-35978750D01*
X45754250Y-35820000D01*
X45313691Y-35820000D01*
X45080302Y-35916673D01*
X44901673Y-36095301D01*
X44805000Y-36328690D01*
X43460000Y-36328690D01*
X43363327Y-36095301D01*
X43184698Y-35916673D01*
X42951309Y-35820000D01*
X42510750Y-35820000D01*
X42352000Y-35978750D01*
X42098000Y-35978750D01*
X41939250Y-35820000D01*
X41498691Y-35820000D01*
X41265302Y-35916673D01*
X41263932Y-35918043D01*
X41176890Y-35858569D01*
X41085000Y-35839961D01*
X41085000Y-33014802D01*
X42224803Y-31875000D01*
X48965198Y-31875000D01*
X47402599Y-33437599D01*
X47402599Y-33437599D01*
G37*
X47402599Y-33437599D02*
X47237852Y-33684161D01*
X47180000Y-33975000D01*
X47180000Y-35837666D01*
X47104683Y-35851838D01*
X47001354Y-35918329D01*
X46999698Y-35916673D01*
X46766309Y-35820000D01*
X46325750Y-35820000D01*
X46167000Y-35978750D01*
X46167000Y-36703000D01*
X46187000Y-36703000D01*
X46187000Y-36957000D01*
X46167000Y-36957000D01*
X46167000Y-37681250D01*
X46325750Y-37840000D01*
X46766309Y-37840000D01*
X46999698Y-37743327D01*
X47001068Y-37741957D01*
X47088110Y-37801431D01*
X47180000Y-37820039D01*
X47180000Y-38827500D01*
X47212833Y-38992560D01*
X45815000Y-38992560D01*
X45579683Y-39036838D01*
X45363559Y-39175910D01*
X45218569Y-39388110D01*
X45167560Y-39640000D01*
X45167560Y-41640000D01*
X45211838Y-41875317D01*
X45350910Y-42091441D01*
X45563110Y-42236431D01*
X45815000Y-42287440D01*
X53690000Y-42287440D01*
X53925317Y-42243162D01*
X54141441Y-42104090D01*
X54286431Y-41891890D01*
X54337440Y-41640000D01*
X54337440Y-39640000D01*
X54293162Y-39404683D01*
X54154090Y-39188559D01*
X53941890Y-39043569D01*
X53690000Y-38992560D01*
X49179862Y-38992560D01*
X48700000Y-38512698D01*
X48700000Y-37822334D01*
X48775317Y-37808162D01*
X48991441Y-37669090D01*
X49136431Y-37456890D01*
X49187440Y-37205000D01*
X49187440Y-36455000D01*
X49143162Y-36219683D01*
X49004090Y-36003559D01*
X48791890Y-35858569D01*
X48700000Y-35839961D01*
X48700000Y-34289802D01*
X50479802Y-32510000D01*
X55448284Y-32510000D01*
X55423559Y-32525910D01*
X55278569Y-32738110D01*
X55227560Y-32990000D01*
X55227560Y-34740000D01*
X55271838Y-34975317D01*
X55340000Y-35081244D01*
X55340000Y-36415000D01*
X55397852Y-36705839D01*
X55562599Y-36952401D01*
X56612599Y-38002401D01*
X56859160Y-38167148D01*
X57150000Y-38225000D01*
X59524367Y-38225000D01*
X59390162Y-38548201D01*
X59390090Y-38631117D01*
X59297852Y-38769161D01*
X59240000Y-39060000D01*
X59240000Y-39542560D01*
X59125000Y-39542560D01*
X59021329Y-39562067D01*
X58925000Y-39542560D01*
X58475000Y-39542560D01*
X58371329Y-39562067D01*
X58275000Y-39542560D01*
X57825000Y-39542560D01*
X57721329Y-39562067D01*
X57625000Y-39542560D01*
X57175000Y-39542560D01*
X57071329Y-39562067D01*
X56975000Y-39542560D01*
X56525000Y-39542560D01*
X56421329Y-39562067D01*
X56325000Y-39542560D01*
X55875000Y-39542560D01*
X55639683Y-39586838D01*
X55423559Y-39725910D01*
X55278569Y-39938110D01*
X55227560Y-40190000D01*
X55227560Y-41940000D01*
X55271838Y-42175317D01*
X55410910Y-42391441D01*
X55623110Y-42536431D01*
X55875000Y-42587440D01*
X56325000Y-42587440D01*
X56428671Y-42567933D01*
X56525000Y-42587440D01*
X56975000Y-42587440D01*
X57078671Y-42567933D01*
X57175000Y-42587440D01*
X57625000Y-42587440D01*
X57728671Y-42567933D01*
X57825000Y-42587440D01*
X58275000Y-42587440D01*
X58378671Y-42567933D01*
X58475000Y-42587440D01*
X58925000Y-42587440D01*
X59028671Y-42567933D01*
X59125000Y-42587440D01*
X59349035Y-42587440D01*
X59462599Y-42757401D01*
X60200000Y-43494802D01*
X60200000Y-43649367D01*
X59876799Y-43515162D01*
X59504833Y-43514838D01*
X59161057Y-43656883D01*
X59127882Y-43690000D01*
X54610000Y-43690000D01*
X54319160Y-43747852D01*
X54072599Y-43912599D01*
X52802599Y-45182599D01*
X52637852Y-45429161D01*
X52580000Y-45720000D01*
X52580000Y-45792560D01*
X51390000Y-45792560D01*
X51154683Y-45836838D01*
X50938559Y-45975910D01*
X50793569Y-46188110D01*
X50785491Y-46228000D01*
X47100264Y-46228000D01*
X47100241Y-46205952D01*
X47071675Y-46137190D01*
X47057148Y-46064161D01*
X47015342Y-46001594D01*
X46986474Y-45932106D01*
X46933769Y-45879511D01*
X46892401Y-45817599D01*
X46829835Y-45775794D01*
X46776572Y-45722642D01*
X44871572Y-44452642D01*
X44802749Y-44424219D01*
X44740839Y-44382852D01*
X44667038Y-44368172D01*
X44597489Y-44339449D01*
X44523031Y-44339527D01*
X44450000Y-44325000D01*
X41837463Y-44325000D01*
X41805327Y-44292808D01*
X41461799Y-44150162D01*
X41089833Y-44149838D01*
X40746057Y-44291883D01*
X40712882Y-44325000D01*
X33969802Y-44325000D01*
X33145000Y-43500198D01*
X33145000Y-38414802D01*
X33334802Y-38225000D01*
X37465000Y-38225000D01*
X37755839Y-38167148D01*
X38002401Y-38002401D01*
X38637401Y-37367401D01*
X38802148Y-37120839D01*
X38860000Y-36830000D01*
X38860000Y-33969802D01*
X39565000Y-33264802D01*
X39565000Y-35837666D01*
X39489683Y-35851838D01*
X39273559Y-35990910D01*
X39128569Y-36203110D01*
X39077560Y-36455000D01*
X39077560Y-37205000D01*
X39121838Y-37440317D01*
X39260910Y-37656441D01*
X39473110Y-37801431D01*
X39565000Y-37820039D01*
X39565000Y-37877698D01*
X38450138Y-38992560D01*
X33940000Y-38992560D01*
X33704683Y-39036838D01*
X33488559Y-39175910D01*
X33343569Y-39388110D01*
X33292560Y-39640000D01*
X33292560Y-41640000D01*
X33336838Y-41875317D01*
X33475910Y-42091441D01*
X33688110Y-42236431D01*
X33940000Y-42287440D01*
X38446728Y-42287440D01*
X38206057Y-42386883D01*
X37942808Y-42649673D01*
X37800162Y-42993201D01*
X37799838Y-43365167D01*
X37941883Y-43708943D01*
X38204673Y-43972192D01*
X38548201Y-44114838D01*
X38920167Y-44115162D01*
X39263943Y-43973117D01*
X39297118Y-43940000D01*
X40712537Y-43940000D01*
X40744673Y-43972192D01*
X41088201Y-44114838D01*
X41460167Y-44115162D01*
X41803943Y-43973117D01*
X42067192Y-43710327D01*
X42209838Y-43366799D01*
X42210162Y-42994833D01*
X42068117Y-42651057D01*
X41805327Y-42387808D01*
X41563615Y-42287440D01*
X41815000Y-42287440D01*
X42050317Y-42243162D01*
X42266441Y-42104090D01*
X42411431Y-41891890D01*
X42462440Y-41640000D01*
X42462440Y-39640000D01*
X42418162Y-39404683D01*
X42279090Y-39188559D01*
X42066890Y-39043569D01*
X41815000Y-38992560D01*
X40599742Y-38992560D01*
X40862401Y-38729901D01*
X41027148Y-38483339D01*
X41085000Y-38192500D01*
X41085000Y-37822334D01*
X41160317Y-37808162D01*
X41263646Y-37741671D01*
X41265302Y-37743327D01*
X41498691Y-37840000D01*
X41939250Y-37840000D01*
X42098000Y-37681250D01*
X42098000Y-36957000D01*
X42352000Y-36957000D01*
X42352000Y-37681250D01*
X42510750Y-37840000D01*
X42951309Y-37840000D01*
X43184698Y-37743327D01*
X43363327Y-37564699D01*
X43460000Y-37331310D01*
X43460000Y-37115750D01*
X44805000Y-37115750D01*
X44805000Y-37331310D01*
X44901673Y-37564699D01*
X45080302Y-37743327D01*
X45313691Y-37840000D01*
X45754250Y-37840000D01*
X45913000Y-37681250D01*
X45913000Y-36957000D01*
X44963750Y-36957000D01*
X44805000Y-37115750D01*
X43460000Y-37115750D01*
X43301250Y-36957000D01*
X42352000Y-36957000D01*
X42098000Y-36957000D01*
X42078000Y-36957000D01*
X42078000Y-36703000D01*
X42098000Y-36703000D01*
X42098000Y-35978750D01*
X42352000Y-35978750D01*
X42352000Y-36703000D01*
X43301250Y-36703000D01*
X43460000Y-36544250D01*
X43460000Y-36328690D01*
X44805000Y-36328690D01*
X44805000Y-36544250D01*
X44963750Y-36703000D01*
X45913000Y-36703000D01*
X45913000Y-35978750D01*
X45754250Y-35820000D01*
X45313691Y-35820000D01*
X45080302Y-35916673D01*
X44901673Y-36095301D01*
X44805000Y-36328690D01*
X43460000Y-36328690D01*
X43363327Y-36095301D01*
X43184698Y-35916673D01*
X42951309Y-35820000D01*
X42510750Y-35820000D01*
X42352000Y-35978750D01*
X42098000Y-35978750D01*
X41939250Y-35820000D01*
X41498691Y-35820000D01*
X41265302Y-35916673D01*
X41263932Y-35918043D01*
X41176890Y-35858569D01*
X41085000Y-35839961D01*
X41085000Y-33014802D01*
X42224803Y-31875000D01*
X48965198Y-31875000D01*
X47402599Y-33437599D01*
G36*
X56235000Y-45218690D02*
X56235000Y-45434250D01*
X56393750Y-45593000D01*
X57343000Y-45593000D01*
X57343000Y-45573000D01*
X57597000Y-45573000D01*
X57597000Y-45593000D01*
X57617000Y-45593000D01*
X57617000Y-45847000D01*
X57597000Y-45847000D01*
X57597000Y-45867000D01*
X57343000Y-45867000D01*
X57343000Y-45847000D01*
X56393750Y-45847000D01*
X56235000Y-46005750D01*
X56235000Y-46221310D01*
X56237771Y-46228000D01*
X54497549Y-46228000D01*
X54493162Y-46204683D01*
X54354090Y-45988559D01*
X54230612Y-45904190D01*
X54924802Y-45210000D01*
X56238600Y-45210000D01*
X56235000Y-45218690D01*
X56235000Y-45218690D01*
G37*
X56235000Y-45218690D02*
X56235000Y-45434250D01*
X56393750Y-45593000D01*
X57343000Y-45593000D01*
X57343000Y-45573000D01*
X57597000Y-45573000D01*
X57597000Y-45593000D01*
X57617000Y-45593000D01*
X57617000Y-45847000D01*
X57597000Y-45847000D01*
X57597000Y-45867000D01*
X57343000Y-45867000D01*
X57343000Y-45847000D01*
X56393750Y-45847000D01*
X56235000Y-46005750D01*
X56235000Y-46221310D01*
X56237771Y-46228000D01*
X54497549Y-46228000D01*
X54493162Y-46204683D01*
X54354090Y-45988559D01*
X54230612Y-45904190D01*
X54924802Y-45210000D01*
X56238600Y-45210000D01*
X56235000Y-45218690D01*
G36*
X76710000Y-37779802D02*
X76710000Y-37957352D01*
X76200000Y-37855907D01*
X75631715Y-37968946D01*
X75149946Y-38290853D01*
X75120597Y-38334777D01*
X75048327Y-38160302D01*
X74869699Y-37981673D01*
X74636310Y-37885000D01*
X73945750Y-37885000D01*
X73787000Y-38043750D01*
X73787000Y-39243000D01*
X73807000Y-39243000D01*
X73807000Y-39497000D01*
X73787000Y-39497000D01*
X73787000Y-39517000D01*
X73533000Y-39517000D01*
X73533000Y-39497000D01*
X72333750Y-39497000D01*
X72175000Y-39655750D01*
X72175000Y-39985198D01*
X71880000Y-39690198D01*
X71880000Y-38735000D01*
X71840548Y-38536661D01*
X71822148Y-38444160D01*
X71788426Y-38393691D01*
X72175000Y-38393691D01*
X72175000Y-39084250D01*
X72333750Y-39243000D01*
X73533000Y-39243000D01*
X73533000Y-38043750D01*
X73374250Y-37885000D01*
X72683690Y-37885000D01*
X72450301Y-37981673D01*
X72271673Y-38160302D01*
X72175000Y-38393691D01*
X71788426Y-38393691D01*
X71657401Y-38197599D01*
X70414802Y-36955000D01*
X75885198Y-36955000D01*
X76710000Y-37779802D01*
X76710000Y-37779802D01*
G37*
X76710000Y-37779802D02*
X76710000Y-37957352D01*
X76200000Y-37855907D01*
X75631715Y-37968946D01*
X75149946Y-38290853D01*
X75120597Y-38334777D01*
X75048327Y-38160302D01*
X74869699Y-37981673D01*
X74636310Y-37885000D01*
X73945750Y-37885000D01*
X73787000Y-38043750D01*
X73787000Y-39243000D01*
X73807000Y-39243000D01*
X73807000Y-39497000D01*
X73787000Y-39497000D01*
X73787000Y-39517000D01*
X73533000Y-39517000D01*
X73533000Y-39497000D01*
X72333750Y-39497000D01*
X72175000Y-39655750D01*
X72175000Y-39985198D01*
X71880000Y-39690198D01*
X71880000Y-38735000D01*
X71840548Y-38536661D01*
X71822148Y-38444160D01*
X71788426Y-38393691D01*
X72175000Y-38393691D01*
X72175000Y-39084250D01*
X72333750Y-39243000D01*
X73533000Y-39243000D01*
X73533000Y-38043750D01*
X73374250Y-37885000D01*
X72683690Y-37885000D01*
X72450301Y-37981673D01*
X72271673Y-38160302D01*
X72175000Y-38393691D01*
X71788426Y-38393691D01*
X71657401Y-38197599D01*
X70414802Y-36955000D01*
X75885198Y-36955000D01*
X76710000Y-37779802D01*
G36*
X83060000Y-32064802D02*
X83060000Y-36902537D01*
X83027808Y-36934673D01*
X82885162Y-37278201D01*
X82884838Y-37650167D01*
X83026883Y-37993943D01*
X83060000Y-38027118D01*
X83060000Y-38097046D01*
X82769946Y-38290853D01*
X82550000Y-38620026D01*
X82330054Y-38290853D01*
X81848285Y-37968946D01*
X81280000Y-37855907D01*
X80711715Y-37968946D01*
X80229946Y-38290853D01*
X80010000Y-38620026D01*
X79790054Y-38290853D01*
X79308285Y-37968946D01*
X78740000Y-37855907D01*
X78230000Y-37957352D01*
X78230000Y-37465000D01*
X78172148Y-37174161D01*
X78172148Y-37174160D01*
X78007401Y-36927599D01*
X76737401Y-35657599D01*
X76490839Y-35492852D01*
X76200000Y-35435000D01*
X67239802Y-35435000D01*
X67362362Y-35312440D01*
X67595000Y-35312440D01*
X67830317Y-35268162D01*
X67933646Y-35201671D01*
X67935302Y-35203327D01*
X68168691Y-35300000D01*
X68609250Y-35300000D01*
X68768000Y-35141250D01*
X68768000Y-34417000D01*
X69022000Y-34417000D01*
X69022000Y-35141250D01*
X69180750Y-35300000D01*
X69621309Y-35300000D01*
X69854698Y-35203327D01*
X70033327Y-35024699D01*
X70130000Y-34791310D01*
X70130000Y-34575750D01*
X69971250Y-34417000D01*
X69022000Y-34417000D01*
X68768000Y-34417000D01*
X68748000Y-34417000D01*
X68748000Y-34163000D01*
X68768000Y-34163000D01*
X68768000Y-33147000D01*
X69022000Y-33147000D01*
X69022000Y-34163000D01*
X69971250Y-34163000D01*
X70130000Y-34004250D01*
X70130000Y-33788690D01*
X70074624Y-33655000D01*
X70130000Y-33521310D01*
X70130000Y-33305750D01*
X69971250Y-33147000D01*
X69022000Y-33147000D01*
X68768000Y-33147000D01*
X68748000Y-33147000D01*
X68748000Y-32893000D01*
X68768000Y-32893000D01*
X68768000Y-32168750D01*
X69022000Y-32168750D01*
X69022000Y-32893000D01*
X69971250Y-32893000D01*
X70130000Y-32734250D01*
X70130000Y-32518690D01*
X70033327Y-32285301D01*
X69854698Y-32106673D01*
X69621309Y-32010000D01*
X69180750Y-32010000D01*
X69022000Y-32168750D01*
X68768000Y-32168750D01*
X68609250Y-32010000D01*
X68168691Y-32010000D01*
X67935302Y-32106673D01*
X67933932Y-32108043D01*
X67846890Y-32048569D01*
X67755000Y-32029961D01*
X67755000Y-31435000D01*
X67716212Y-31240000D01*
X82235198Y-31240000D01*
X83060000Y-32064802D01*
X83060000Y-32064802D01*
G37*
X83060000Y-32064802D02*
X83060000Y-36902537D01*
X83027808Y-36934673D01*
X82885162Y-37278201D01*
X82884838Y-37650167D01*
X83026883Y-37993943D01*
X83060000Y-38027118D01*
X83060000Y-38097046D01*
X82769946Y-38290853D01*
X82550000Y-38620026D01*
X82330054Y-38290853D01*
X81848285Y-37968946D01*
X81280000Y-37855907D01*
X80711715Y-37968946D01*
X80229946Y-38290853D01*
X80010000Y-38620026D01*
X79790054Y-38290853D01*
X79308285Y-37968946D01*
X78740000Y-37855907D01*
X78230000Y-37957352D01*
X78230000Y-37465000D01*
X78172148Y-37174161D01*
X78172148Y-37174160D01*
X78007401Y-36927599D01*
X76737401Y-35657599D01*
X76490839Y-35492852D01*
X76200000Y-35435000D01*
X67239802Y-35435000D01*
X67362362Y-35312440D01*
X67595000Y-35312440D01*
X67830317Y-35268162D01*
X67933646Y-35201671D01*
X67935302Y-35203327D01*
X68168691Y-35300000D01*
X68609250Y-35300000D01*
X68768000Y-35141250D01*
X68768000Y-34417000D01*
X69022000Y-34417000D01*
X69022000Y-35141250D01*
X69180750Y-35300000D01*
X69621309Y-35300000D01*
X69854698Y-35203327D01*
X70033327Y-35024699D01*
X70130000Y-34791310D01*
X70130000Y-34575750D01*
X69971250Y-34417000D01*
X69022000Y-34417000D01*
X68768000Y-34417000D01*
X68748000Y-34417000D01*
X68748000Y-34163000D01*
X68768000Y-34163000D01*
X68768000Y-33147000D01*
X69022000Y-33147000D01*
X69022000Y-34163000D01*
X69971250Y-34163000D01*
X70130000Y-34004250D01*
X70130000Y-33788690D01*
X70074624Y-33655000D01*
X70130000Y-33521310D01*
X70130000Y-33305750D01*
X69971250Y-33147000D01*
X69022000Y-33147000D01*
X68768000Y-33147000D01*
X68748000Y-33147000D01*
X68748000Y-32893000D01*
X68768000Y-32893000D01*
X68768000Y-32168750D01*
X69022000Y-32168750D01*
X69022000Y-32893000D01*
X69971250Y-32893000D01*
X70130000Y-32734250D01*
X70130000Y-32518690D01*
X70033327Y-32285301D01*
X69854698Y-32106673D01*
X69621309Y-32010000D01*
X69180750Y-32010000D01*
X69022000Y-32168750D01*
X68768000Y-32168750D01*
X68609250Y-32010000D01*
X68168691Y-32010000D01*
X67935302Y-32106673D01*
X67933932Y-32108043D01*
X67846890Y-32048569D01*
X67755000Y-32029961D01*
X67755000Y-31435000D01*
X67716212Y-31240000D01*
X82235198Y-31240000D01*
X83060000Y-32064802D01*
G36*
X33355162Y-73219201D02*
X33354838Y-73591167D01*
X33484625Y-73905276D01*
X33243808Y-74145673D01*
X33101162Y-74489201D01*
X33100838Y-74861167D01*
X33242883Y-75204943D01*
X33276000Y-75238118D01*
X33276000Y-77978000D01*
X33333852Y-78268839D01*
X33498599Y-78515401D01*
X33608878Y-78625680D01*
X33608838Y-78671167D01*
X33750883Y-79014943D01*
X34013673Y-79278192D01*
X34357201Y-79420838D01*
X34729167Y-79421162D01*
X34800000Y-79391894D01*
X34800000Y-95885000D01*
X34857852Y-96175839D01*
X35022599Y-96422401D01*
X39247914Y-100647716D01*
X39188559Y-100685910D01*
X39083274Y-100840000D01*
X38093301Y-100840000D01*
X37880054Y-100520853D01*
X37398285Y-100198946D01*
X36830000Y-100085907D01*
X36261715Y-100198946D01*
X35779946Y-100520853D01*
X35750597Y-100564777D01*
X35678327Y-100390302D01*
X35499699Y-100211673D01*
X35266310Y-100115000D01*
X34575750Y-100115000D01*
X34417000Y-100273750D01*
X34417000Y-101473000D01*
X34437000Y-101473000D01*
X34437000Y-101727000D01*
X34417000Y-101727000D01*
X34417000Y-102926250D01*
X34575750Y-103085000D01*
X35266310Y-103085000D01*
X35499699Y-102988327D01*
X35678327Y-102809698D01*
X35750597Y-102635223D01*
X35779946Y-102679147D01*
X36261715Y-103001054D01*
X36830000Y-103114093D01*
X37398285Y-103001054D01*
X37880054Y-102679147D01*
X38093301Y-102360000D01*
X39084895Y-102360000D01*
X39175910Y-102501441D01*
X39388110Y-102646431D01*
X39640000Y-102697440D01*
X40140000Y-102697440D01*
X40375317Y-102653162D01*
X40591441Y-102514090D01*
X40639134Y-102444289D01*
X40675910Y-102501441D01*
X40888110Y-102646431D01*
X41140000Y-102697440D01*
X41640000Y-102697440D01*
X41875317Y-102653162D01*
X42091441Y-102514090D01*
X42196726Y-102360000D01*
X42758203Y-102360000D01*
X42848110Y-102421431D01*
X43100000Y-102472440D01*
X43700000Y-102472440D01*
X43935317Y-102428162D01*
X44151441Y-102289090D01*
X44296431Y-102076890D01*
X44347440Y-101825000D01*
X44347440Y-101375000D01*
X44303162Y-101139683D01*
X44271192Y-101090000D01*
X44626192Y-101090000D01*
X44603569Y-101123110D01*
X44552560Y-101375000D01*
X44552560Y-101825000D01*
X44596838Y-102060317D01*
X44735910Y-102276441D01*
X44948110Y-102421431D01*
X45200000Y-102472440D01*
X45800000Y-102472440D01*
X46035317Y-102428162D01*
X46141244Y-102360000D01*
X51507537Y-102360000D01*
X51539673Y-102392192D01*
X51883201Y-102534838D01*
X52255167Y-102535162D01*
X52598943Y-102393117D01*
X52632118Y-102360000D01*
X75565000Y-102360000D01*
X75855839Y-102302148D01*
X76102401Y-102137401D01*
X76677500Y-101562302D01*
X77887599Y-102772401D01*
X78134161Y-102937148D01*
X78425000Y-102995000D01*
X80010000Y-102995000D01*
X80300839Y-102937148D01*
X80547401Y-102772401D01*
X82711544Y-100608258D01*
X82448039Y-101002622D01*
X82335000Y-101570907D01*
X82335000Y-101629093D01*
X82448039Y-102197378D01*
X82769946Y-102679147D01*
X83251715Y-103001054D01*
X83820000Y-103114093D01*
X84388285Y-103001054D01*
X84870054Y-102679147D01*
X84899403Y-102635223D01*
X84971673Y-102809698D01*
X85150301Y-102988327D01*
X85383690Y-103085000D01*
X86074250Y-103085000D01*
X86233000Y-102926250D01*
X86233000Y-101727000D01*
X86487000Y-101727000D01*
X86487000Y-102926250D01*
X86645750Y-103085000D01*
X87336310Y-103085000D01*
X87569699Y-102988327D01*
X87748327Y-102809698D01*
X87845000Y-102576309D01*
X87845000Y-101885750D01*
X87686250Y-101727000D01*
X86487000Y-101727000D01*
X86233000Y-101727000D01*
X86213000Y-101727000D01*
X86213000Y-101473000D01*
X86233000Y-101473000D01*
X86233000Y-100273750D01*
X86487000Y-100273750D01*
X86487000Y-101473000D01*
X87686250Y-101473000D01*
X87845000Y-101314250D01*
X87845000Y-100623691D01*
X87748327Y-100390302D01*
X87569699Y-100211673D01*
X87336310Y-100115000D01*
X86645750Y-100115000D01*
X86487000Y-100273750D01*
X86233000Y-100273750D01*
X86074250Y-100115000D01*
X85383690Y-100115000D01*
X85150301Y-100211673D01*
X84971673Y-100390302D01*
X84899403Y-100564777D01*
X84870054Y-100520853D01*
X84770481Y-100454321D01*
X85404802Y-99820000D01*
X85725000Y-99820000D01*
X86015839Y-99762148D01*
X86262401Y-99597401D01*
X86377401Y-99482401D01*
X86542148Y-99235839D01*
X86600000Y-98945000D01*
X86600000Y-98618386D01*
X86686431Y-98491890D01*
X86737440Y-98240000D01*
X86737440Y-97340000D01*
X86702024Y-97151779D01*
X86725000Y-97096310D01*
X86725000Y-96805750D01*
X86566250Y-96647000D01*
X85965000Y-96647000D01*
X85965000Y-96667000D01*
X85715000Y-96667000D01*
X85715000Y-96647000D01*
X85693000Y-96647000D01*
X85693000Y-96393000D01*
X85715000Y-96393000D01*
X85715000Y-95377000D01*
X85965000Y-95377000D01*
X85965000Y-96393000D01*
X86566250Y-96393000D01*
X86725000Y-96234250D01*
X86725000Y-95943690D01*
X86700690Y-95885000D01*
X86725000Y-95826310D01*
X86725000Y-95535750D01*
X86566250Y-95377000D01*
X85965000Y-95377000D01*
X85715000Y-95377000D01*
X85693000Y-95377000D01*
X85693000Y-95123000D01*
X85715000Y-95123000D01*
X85715000Y-94323750D01*
X85965000Y-94323750D01*
X85965000Y-95123000D01*
X86566250Y-95123000D01*
X86725000Y-94964250D01*
X86725000Y-94673690D01*
X86628327Y-94440301D01*
X86449698Y-94261673D01*
X86216309Y-94165000D01*
X86123750Y-94165000D01*
X85965000Y-94323750D01*
X85715000Y-94323750D01*
X85556250Y-94165000D01*
X85463691Y-94165000D01*
X85230302Y-94261673D01*
X85089064Y-94402910D01*
X85054090Y-94348559D01*
X84841890Y-94203569D01*
X84590000Y-94152560D01*
X84090000Y-94152560D01*
X83854683Y-94196838D01*
X83643081Y-94333000D01*
X81930757Y-94333000D01*
X81904090Y-94291559D01*
X81691890Y-94146569D01*
X81440000Y-94095560D01*
X80440000Y-94095560D01*
X80204683Y-94139838D01*
X79988559Y-94278910D01*
X79843569Y-94491110D01*
X79792560Y-94743000D01*
X79792560Y-95443000D01*
X79817139Y-95573626D01*
X79792560Y-95695000D01*
X79792560Y-96395000D01*
X79812450Y-96500705D01*
X79807487Y-96512685D01*
X78865000Y-95570198D01*
X78865000Y-93345000D01*
X78807148Y-93054161D01*
X78642401Y-92807599D01*
X78007401Y-92172599D01*
X77760839Y-92007852D01*
X77470000Y-91950000D01*
X73660000Y-91950000D01*
X73369160Y-92007852D01*
X73122599Y-92172599D01*
X72372599Y-92922599D01*
X72328345Y-92988830D01*
X72208559Y-93065910D01*
X72103274Y-93220000D01*
X71285633Y-93220000D01*
X71419838Y-92896799D01*
X71419858Y-92873976D01*
X71441201Y-92882838D01*
X71813167Y-92883162D01*
X72156943Y-92741117D01*
X72420192Y-92478327D01*
X72562838Y-92134799D01*
X72563162Y-91762833D01*
X72421117Y-91419057D01*
X72158327Y-91155808D01*
X71814799Y-91013162D01*
X71442833Y-91012838D01*
X71245000Y-91094581D01*
X71245000Y-75879802D01*
X71259680Y-75865122D01*
X71305167Y-75865162D01*
X71648943Y-75723117D01*
X71912192Y-75460327D01*
X72054838Y-75116799D01*
X72055162Y-74744833D01*
X71913117Y-74401057D01*
X71650327Y-74137808D01*
X71306799Y-73995162D01*
X70934833Y-73994838D01*
X70591057Y-74136883D01*
X70327808Y-74399673D01*
X70185162Y-74743201D01*
X70185121Y-74790077D01*
X69947599Y-75027599D01*
X69782852Y-75274161D01*
X69725000Y-75565000D01*
X69725000Y-92147537D01*
X69692808Y-92179673D01*
X69550162Y-92523201D01*
X69549838Y-92895167D01*
X69684056Y-93220000D01*
X68259802Y-93220000D01*
X68070000Y-93030198D01*
X68070000Y-73152000D01*
X68267198Y-73152000D01*
X68677599Y-73562401D01*
X68924161Y-73727148D01*
X69215000Y-73785000D01*
X72710198Y-73785000D01*
X72900000Y-73974802D01*
X72900000Y-90242537D01*
X72867808Y-90274673D01*
X72725162Y-90618201D01*
X72724838Y-90990167D01*
X72866883Y-91333943D01*
X73129673Y-91597192D01*
X73473201Y-91739838D01*
X73845167Y-91740162D01*
X74188943Y-91598117D01*
X74452192Y-91335327D01*
X74594838Y-90991799D01*
X74595162Y-90619833D01*
X74453117Y-90276057D01*
X74420000Y-90242882D01*
X74420000Y-77105000D01*
X74467560Y-77105000D01*
X74467560Y-77605000D01*
X74511838Y-77840317D01*
X74650910Y-78056441D01*
X74720711Y-78104134D01*
X74663559Y-78140910D01*
X74518569Y-78353110D01*
X74467560Y-78605000D01*
X74467560Y-79105000D01*
X74511838Y-79340317D01*
X74650910Y-79556441D01*
X74721035Y-79604355D01*
X74630162Y-79823201D01*
X74629838Y-80195167D01*
X74771883Y-80538943D01*
X75034673Y-80802192D01*
X75378201Y-80944838D01*
X75750167Y-80945162D01*
X76093943Y-80803117D01*
X76357192Y-80540327D01*
X76499838Y-80196799D01*
X76500162Y-79824833D01*
X76409603Y-79605664D01*
X76466441Y-79569090D01*
X76611431Y-79356890D01*
X76662440Y-79105000D01*
X76662440Y-78605000D01*
X76618162Y-78369683D01*
X76479090Y-78153559D01*
X76409289Y-78105866D01*
X76466441Y-78069090D01*
X76611431Y-77856890D01*
X76662440Y-77605000D01*
X76662440Y-77105000D01*
X76618162Y-76869683D01*
X76479090Y-76653559D01*
X76408965Y-76605645D01*
X76499838Y-76386799D01*
X76500162Y-76014833D01*
X76358117Y-75671057D01*
X76095327Y-75407808D01*
X75751799Y-75265162D01*
X75379833Y-75264838D01*
X75036057Y-75406883D01*
X74772808Y-75669673D01*
X74630162Y-76013201D01*
X74629838Y-76385167D01*
X74720397Y-76604336D01*
X74663559Y-76640910D01*
X74518569Y-76853110D01*
X74467560Y-77105000D01*
X74420000Y-77105000D01*
X74420000Y-73660000D01*
X74362148Y-73369161D01*
X74217046Y-73152000D01*
X76710000Y-73152000D01*
X76710000Y-88900000D01*
X76767852Y-89190839D01*
X76932599Y-89437401D01*
X77804878Y-90309680D01*
X77804838Y-90355167D01*
X77946883Y-90698943D01*
X78209673Y-90962192D01*
X78553201Y-91104838D01*
X78925167Y-91105162D01*
X79268943Y-90963117D01*
X79532192Y-90700327D01*
X79674838Y-90356799D01*
X79675162Y-89984833D01*
X79533117Y-89641057D01*
X79270327Y-89377808D01*
X78926799Y-89235162D01*
X78879923Y-89235121D01*
X78230000Y-88585198D01*
X78230000Y-73152000D01*
X79885000Y-73152000D01*
X79885000Y-92147537D01*
X79852808Y-92179673D01*
X79710162Y-92523201D01*
X79709838Y-92895167D01*
X79851883Y-93238943D01*
X80114673Y-93502192D01*
X80458201Y-93644838D01*
X80830167Y-93645162D01*
X81173943Y-93503117D01*
X81437192Y-93240327D01*
X81579838Y-92896799D01*
X81580162Y-92524833D01*
X81438117Y-92181057D01*
X81405000Y-92147882D01*
X81405000Y-81354775D01*
X82684803Y-81354775D01*
X82857233Y-81772086D01*
X83176235Y-82091645D01*
X83593244Y-82264803D01*
X84044775Y-82265197D01*
X84462086Y-82092767D01*
X84781645Y-81773765D01*
X84954803Y-81356756D01*
X84955197Y-80905225D01*
X84782767Y-80487914D01*
X84463765Y-80168355D01*
X84046756Y-79995197D01*
X83595225Y-79994803D01*
X83177914Y-80167233D01*
X82858355Y-80486235D01*
X82685197Y-80903244D01*
X82684803Y-81354775D01*
X81405000Y-81354775D01*
X81405000Y-73152000D01*
X82684997Y-73152000D01*
X82684803Y-73374775D01*
X82857233Y-73792086D01*
X83176235Y-74111645D01*
X83593244Y-74284803D01*
X84044775Y-74285197D01*
X84462086Y-74112767D01*
X84781645Y-73793765D01*
X84954803Y-73376756D01*
X84954999Y-73152000D01*
X89290000Y-73152000D01*
X89290000Y-109093000D01*
X30710000Y-109093000D01*
X30710000Y-101885750D01*
X32805000Y-101885750D01*
X32805000Y-102576309D01*
X32901673Y-102809698D01*
X33080301Y-102988327D01*
X33313690Y-103085000D01*
X34004250Y-103085000D01*
X34163000Y-102926250D01*
X34163000Y-101727000D01*
X32963750Y-101727000D01*
X32805000Y-101885750D01*
X30710000Y-101885750D01*
X30710000Y-100623691D01*
X32805000Y-100623691D01*
X32805000Y-101314250D01*
X32963750Y-101473000D01*
X34163000Y-101473000D01*
X34163000Y-100273750D01*
X34004250Y-100115000D01*
X33313690Y-100115000D01*
X33080301Y-100211673D01*
X32901673Y-100390302D01*
X32805000Y-100623691D01*
X30710000Y-100623691D01*
X30710000Y-74450516D01*
X30711673Y-74452192D01*
X31055201Y-74594838D01*
X31427167Y-74595162D01*
X31770943Y-74453117D01*
X32034192Y-74190327D01*
X32176838Y-73846799D01*
X32177162Y-73474833D01*
X32043770Y-73152000D01*
X33383066Y-73152000D01*
X33355162Y-73219201D01*
X33355162Y-73219201D01*
G37*
X33355162Y-73219201D02*
X33354838Y-73591167D01*
X33484625Y-73905276D01*
X33243808Y-74145673D01*
X33101162Y-74489201D01*
X33100838Y-74861167D01*
X33242883Y-75204943D01*
X33276000Y-75238118D01*
X33276000Y-77978000D01*
X33333852Y-78268839D01*
X33498599Y-78515401D01*
X33608878Y-78625680D01*
X33608838Y-78671167D01*
X33750883Y-79014943D01*
X34013673Y-79278192D01*
X34357201Y-79420838D01*
X34729167Y-79421162D01*
X34800000Y-79391894D01*
X34800000Y-95885000D01*
X34857852Y-96175839D01*
X35022599Y-96422401D01*
X39247914Y-100647716D01*
X39188559Y-100685910D01*
X39083274Y-100840000D01*
X38093301Y-100840000D01*
X37880054Y-100520853D01*
X37398285Y-100198946D01*
X36830000Y-100085907D01*
X36261715Y-100198946D01*
X35779946Y-100520853D01*
X35750597Y-100564777D01*
X35678327Y-100390302D01*
X35499699Y-100211673D01*
X35266310Y-100115000D01*
X34575750Y-100115000D01*
X34417000Y-100273750D01*
X34417000Y-101473000D01*
X34437000Y-101473000D01*
X34437000Y-101727000D01*
X34417000Y-101727000D01*
X34417000Y-102926250D01*
X34575750Y-103085000D01*
X35266310Y-103085000D01*
X35499699Y-102988327D01*
X35678327Y-102809698D01*
X35750597Y-102635223D01*
X35779946Y-102679147D01*
X36261715Y-103001054D01*
X36830000Y-103114093D01*
X37398285Y-103001054D01*
X37880054Y-102679147D01*
X38093301Y-102360000D01*
X39084895Y-102360000D01*
X39175910Y-102501441D01*
X39388110Y-102646431D01*
X39640000Y-102697440D01*
X40140000Y-102697440D01*
X40375317Y-102653162D01*
X40591441Y-102514090D01*
X40639134Y-102444289D01*
X40675910Y-102501441D01*
X40888110Y-102646431D01*
X41140000Y-102697440D01*
X41640000Y-102697440D01*
X41875317Y-102653162D01*
X42091441Y-102514090D01*
X42196726Y-102360000D01*
X42758203Y-102360000D01*
X42848110Y-102421431D01*
X43100000Y-102472440D01*
X43700000Y-102472440D01*
X43935317Y-102428162D01*
X44151441Y-102289090D01*
X44296431Y-102076890D01*
X44347440Y-101825000D01*
X44347440Y-101375000D01*
X44303162Y-101139683D01*
X44271192Y-101090000D01*
X44626192Y-101090000D01*
X44603569Y-101123110D01*
X44552560Y-101375000D01*
X44552560Y-101825000D01*
X44596838Y-102060317D01*
X44735910Y-102276441D01*
X44948110Y-102421431D01*
X45200000Y-102472440D01*
X45800000Y-102472440D01*
X46035317Y-102428162D01*
X46141244Y-102360000D01*
X51507537Y-102360000D01*
X51539673Y-102392192D01*
X51883201Y-102534838D01*
X52255167Y-102535162D01*
X52598943Y-102393117D01*
X52632118Y-102360000D01*
X75565000Y-102360000D01*
X75855839Y-102302148D01*
X76102401Y-102137401D01*
X76677500Y-101562302D01*
X77887599Y-102772401D01*
X78134161Y-102937148D01*
X78425000Y-102995000D01*
X80010000Y-102995000D01*
X80300839Y-102937148D01*
X80547401Y-102772401D01*
X82711544Y-100608258D01*
X82448039Y-101002622D01*
X82335000Y-101570907D01*
X82335000Y-101629093D01*
X82448039Y-102197378D01*
X82769946Y-102679147D01*
X83251715Y-103001054D01*
X83820000Y-103114093D01*
X84388285Y-103001054D01*
X84870054Y-102679147D01*
X84899403Y-102635223D01*
X84971673Y-102809698D01*
X85150301Y-102988327D01*
X85383690Y-103085000D01*
X86074250Y-103085000D01*
X86233000Y-102926250D01*
X86233000Y-101727000D01*
X86487000Y-101727000D01*
X86487000Y-102926250D01*
X86645750Y-103085000D01*
X87336310Y-103085000D01*
X87569699Y-102988327D01*
X87748327Y-102809698D01*
X87845000Y-102576309D01*
X87845000Y-101885750D01*
X87686250Y-101727000D01*
X86487000Y-101727000D01*
X86233000Y-101727000D01*
X86213000Y-101727000D01*
X86213000Y-101473000D01*
X86233000Y-101473000D01*
X86233000Y-100273750D01*
X86487000Y-100273750D01*
X86487000Y-101473000D01*
X87686250Y-101473000D01*
X87845000Y-101314250D01*
X87845000Y-100623691D01*
X87748327Y-100390302D01*
X87569699Y-100211673D01*
X87336310Y-100115000D01*
X86645750Y-100115000D01*
X86487000Y-100273750D01*
X86233000Y-100273750D01*
X86074250Y-100115000D01*
X85383690Y-100115000D01*
X85150301Y-100211673D01*
X84971673Y-100390302D01*
X84899403Y-100564777D01*
X84870054Y-100520853D01*
X84770481Y-100454321D01*
X85404802Y-99820000D01*
X85725000Y-99820000D01*
X86015839Y-99762148D01*
X86262401Y-99597401D01*
X86377401Y-99482401D01*
X86542148Y-99235839D01*
X86600000Y-98945000D01*
X86600000Y-98618386D01*
X86686431Y-98491890D01*
X86737440Y-98240000D01*
X86737440Y-97340000D01*
X86702024Y-97151779D01*
X86725000Y-97096310D01*
X86725000Y-96805750D01*
X86566250Y-96647000D01*
X85965000Y-96647000D01*
X85965000Y-96667000D01*
X85715000Y-96667000D01*
X85715000Y-96647000D01*
X85693000Y-96647000D01*
X85693000Y-96393000D01*
X85715000Y-96393000D01*
X85715000Y-95377000D01*
X85965000Y-95377000D01*
X85965000Y-96393000D01*
X86566250Y-96393000D01*
X86725000Y-96234250D01*
X86725000Y-95943690D01*
X86700690Y-95885000D01*
X86725000Y-95826310D01*
X86725000Y-95535750D01*
X86566250Y-95377000D01*
X85965000Y-95377000D01*
X85715000Y-95377000D01*
X85693000Y-95377000D01*
X85693000Y-95123000D01*
X85715000Y-95123000D01*
X85715000Y-94323750D01*
X85965000Y-94323750D01*
X85965000Y-95123000D01*
X86566250Y-95123000D01*
X86725000Y-94964250D01*
X86725000Y-94673690D01*
X86628327Y-94440301D01*
X86449698Y-94261673D01*
X86216309Y-94165000D01*
X86123750Y-94165000D01*
X85965000Y-94323750D01*
X85715000Y-94323750D01*
X85556250Y-94165000D01*
X85463691Y-94165000D01*
X85230302Y-94261673D01*
X85089064Y-94402910D01*
X85054090Y-94348559D01*
X84841890Y-94203569D01*
X84590000Y-94152560D01*
X84090000Y-94152560D01*
X83854683Y-94196838D01*
X83643081Y-94333000D01*
X81930757Y-94333000D01*
X81904090Y-94291559D01*
X81691890Y-94146569D01*
X81440000Y-94095560D01*
X80440000Y-94095560D01*
X80204683Y-94139838D01*
X79988559Y-94278910D01*
X79843569Y-94491110D01*
X79792560Y-94743000D01*
X79792560Y-95443000D01*
X79817139Y-95573626D01*
X79792560Y-95695000D01*
X79792560Y-96395000D01*
X79812450Y-96500705D01*
X79807487Y-96512685D01*
X78865000Y-95570198D01*
X78865000Y-93345000D01*
X78807148Y-93054161D01*
X78642401Y-92807599D01*
X78007401Y-92172599D01*
X77760839Y-92007852D01*
X77470000Y-91950000D01*
X73660000Y-91950000D01*
X73369160Y-92007852D01*
X73122599Y-92172599D01*
X72372599Y-92922599D01*
X72328345Y-92988830D01*
X72208559Y-93065910D01*
X72103274Y-93220000D01*
X71285633Y-93220000D01*
X71419838Y-92896799D01*
X71419858Y-92873976D01*
X71441201Y-92882838D01*
X71813167Y-92883162D01*
X72156943Y-92741117D01*
X72420192Y-92478327D01*
X72562838Y-92134799D01*
X72563162Y-91762833D01*
X72421117Y-91419057D01*
X72158327Y-91155808D01*
X71814799Y-91013162D01*
X71442833Y-91012838D01*
X71245000Y-91094581D01*
X71245000Y-75879802D01*
X71259680Y-75865122D01*
X71305167Y-75865162D01*
X71648943Y-75723117D01*
X71912192Y-75460327D01*
X72054838Y-75116799D01*
X72055162Y-74744833D01*
X71913117Y-74401057D01*
X71650327Y-74137808D01*
X71306799Y-73995162D01*
X70934833Y-73994838D01*
X70591057Y-74136883D01*
X70327808Y-74399673D01*
X70185162Y-74743201D01*
X70185121Y-74790077D01*
X69947599Y-75027599D01*
X69782852Y-75274161D01*
X69725000Y-75565000D01*
X69725000Y-92147537D01*
X69692808Y-92179673D01*
X69550162Y-92523201D01*
X69549838Y-92895167D01*
X69684056Y-93220000D01*
X68259802Y-93220000D01*
X68070000Y-93030198D01*
X68070000Y-73152000D01*
X68267198Y-73152000D01*
X68677599Y-73562401D01*
X68924161Y-73727148D01*
X69215000Y-73785000D01*
X72710198Y-73785000D01*
X72900000Y-73974802D01*
X72900000Y-90242537D01*
X72867808Y-90274673D01*
X72725162Y-90618201D01*
X72724838Y-90990167D01*
X72866883Y-91333943D01*
X73129673Y-91597192D01*
X73473201Y-91739838D01*
X73845167Y-91740162D01*
X74188943Y-91598117D01*
X74452192Y-91335327D01*
X74594838Y-90991799D01*
X74595162Y-90619833D01*
X74453117Y-90276057D01*
X74420000Y-90242882D01*
X74420000Y-77105000D01*
X74467560Y-77105000D01*
X74467560Y-77605000D01*
X74511838Y-77840317D01*
X74650910Y-78056441D01*
X74720711Y-78104134D01*
X74663559Y-78140910D01*
X74518569Y-78353110D01*
X74467560Y-78605000D01*
X74467560Y-79105000D01*
X74511838Y-79340317D01*
X74650910Y-79556441D01*
X74721035Y-79604355D01*
X74630162Y-79823201D01*
X74629838Y-80195167D01*
X74771883Y-80538943D01*
X75034673Y-80802192D01*
X75378201Y-80944838D01*
X75750167Y-80945162D01*
X76093943Y-80803117D01*
X76357192Y-80540327D01*
X76499838Y-80196799D01*
X76500162Y-79824833D01*
X76409603Y-79605664D01*
X76466441Y-79569090D01*
X76611431Y-79356890D01*
X76662440Y-79105000D01*
X76662440Y-78605000D01*
X76618162Y-78369683D01*
X76479090Y-78153559D01*
X76409289Y-78105866D01*
X76466441Y-78069090D01*
X76611431Y-77856890D01*
X76662440Y-77605000D01*
X76662440Y-77105000D01*
X76618162Y-76869683D01*
X76479090Y-76653559D01*
X76408965Y-76605645D01*
X76499838Y-76386799D01*
X76500162Y-76014833D01*
X76358117Y-75671057D01*
X76095327Y-75407808D01*
X75751799Y-75265162D01*
X75379833Y-75264838D01*
X75036057Y-75406883D01*
X74772808Y-75669673D01*
X74630162Y-76013201D01*
X74629838Y-76385167D01*
X74720397Y-76604336D01*
X74663559Y-76640910D01*
X74518569Y-76853110D01*
X74467560Y-77105000D01*
X74420000Y-77105000D01*
X74420000Y-73660000D01*
X74362148Y-73369161D01*
X74217046Y-73152000D01*
X76710000Y-73152000D01*
X76710000Y-88900000D01*
X76767852Y-89190839D01*
X76932599Y-89437401D01*
X77804878Y-90309680D01*
X77804838Y-90355167D01*
X77946883Y-90698943D01*
X78209673Y-90962192D01*
X78553201Y-91104838D01*
X78925167Y-91105162D01*
X79268943Y-90963117D01*
X79532192Y-90700327D01*
X79674838Y-90356799D01*
X79675162Y-89984833D01*
X79533117Y-89641057D01*
X79270327Y-89377808D01*
X78926799Y-89235162D01*
X78879923Y-89235121D01*
X78230000Y-88585198D01*
X78230000Y-73152000D01*
X79885000Y-73152000D01*
X79885000Y-92147537D01*
X79852808Y-92179673D01*
X79710162Y-92523201D01*
X79709838Y-92895167D01*
X79851883Y-93238943D01*
X80114673Y-93502192D01*
X80458201Y-93644838D01*
X80830167Y-93645162D01*
X81173943Y-93503117D01*
X81437192Y-93240327D01*
X81579838Y-92896799D01*
X81580162Y-92524833D01*
X81438117Y-92181057D01*
X81405000Y-92147882D01*
X81405000Y-81354775D01*
X82684803Y-81354775D01*
X82857233Y-81772086D01*
X83176235Y-82091645D01*
X83593244Y-82264803D01*
X84044775Y-82265197D01*
X84462086Y-82092767D01*
X84781645Y-81773765D01*
X84954803Y-81356756D01*
X84955197Y-80905225D01*
X84782767Y-80487914D01*
X84463765Y-80168355D01*
X84046756Y-79995197D01*
X83595225Y-79994803D01*
X83177914Y-80167233D01*
X82858355Y-80486235D01*
X82685197Y-80903244D01*
X82684803Y-81354775D01*
X81405000Y-81354775D01*
X81405000Y-73152000D01*
X82684997Y-73152000D01*
X82684803Y-73374775D01*
X82857233Y-73792086D01*
X83176235Y-74111645D01*
X83593244Y-74284803D01*
X84044775Y-74285197D01*
X84462086Y-74112767D01*
X84781645Y-73793765D01*
X84954803Y-73376756D01*
X84954999Y-73152000D01*
X89290000Y-73152000D01*
X89290000Y-109093000D01*
X30710000Y-109093000D01*
X30710000Y-101885750D01*
X32805000Y-101885750D01*
X32805000Y-102576309D01*
X32901673Y-102809698D01*
X33080301Y-102988327D01*
X33313690Y-103085000D01*
X34004250Y-103085000D01*
X34163000Y-102926250D01*
X34163000Y-101727000D01*
X32963750Y-101727000D01*
X32805000Y-101885750D01*
X30710000Y-101885750D01*
X30710000Y-100623691D01*
X32805000Y-100623691D01*
X32805000Y-101314250D01*
X32963750Y-101473000D01*
X34163000Y-101473000D01*
X34163000Y-100273750D01*
X34004250Y-100115000D01*
X33313690Y-100115000D01*
X33080301Y-100211673D01*
X32901673Y-100390302D01*
X32805000Y-100623691D01*
X30710000Y-100623691D01*
X30710000Y-74450516D01*
X30711673Y-74452192D01*
X31055201Y-74594838D01*
X31427167Y-74595162D01*
X31770943Y-74453117D01*
X32034192Y-74190327D01*
X32176838Y-73846799D01*
X32177162Y-73474833D01*
X32043770Y-73152000D01*
X33383066Y-73152000D01*
X33355162Y-73219201D01*
G36*
X82647599Y-97057401D02*
X82894160Y-97222148D01*
X82942414Y-97231746D01*
X83185000Y-97280000D01*
X83454710Y-97280000D01*
X83442560Y-97340000D01*
X83442560Y-97727638D01*
X79695198Y-101475000D01*
X78739802Y-101475000D01*
X78547002Y-101282200D01*
X78547002Y-101181252D01*
X78705750Y-101340000D01*
X79146309Y-101340000D01*
X79379698Y-101243327D01*
X79558327Y-101064699D01*
X79655000Y-100831310D01*
X79655000Y-100615750D01*
X79496250Y-100457000D01*
X78547000Y-100457000D01*
X78547000Y-100477000D01*
X78293000Y-100477000D01*
X78293000Y-100457000D01*
X78273000Y-100457000D01*
X78273000Y-100203000D01*
X78293000Y-100203000D01*
X78293000Y-99478750D01*
X78547000Y-99478750D01*
X78547000Y-100203000D01*
X79496250Y-100203000D01*
X79655000Y-100044250D01*
X79655000Y-99828690D01*
X79558327Y-99595301D01*
X79379698Y-99416673D01*
X79146309Y-99320000D01*
X78705750Y-99320000D01*
X78547000Y-99478750D01*
X78293000Y-99478750D01*
X78134250Y-99320000D01*
X77693691Y-99320000D01*
X77460302Y-99416673D01*
X77458932Y-99418043D01*
X77371890Y-99358569D01*
X77280000Y-99339961D01*
X77280000Y-98897149D01*
X77491441Y-98761090D01*
X77605056Y-98594808D01*
X77918201Y-98724838D01*
X78290167Y-98725162D01*
X78633943Y-98583117D01*
X78897192Y-98320327D01*
X79039838Y-97976799D01*
X79039910Y-97894712D01*
X79629599Y-98484401D01*
X79876160Y-98649148D01*
X79917280Y-98657327D01*
X79975910Y-98748441D01*
X80188110Y-98893431D01*
X80440000Y-98944440D01*
X81440000Y-98944440D01*
X81675317Y-98900162D01*
X81891441Y-98761090D01*
X82036431Y-98548890D01*
X82087440Y-98297000D01*
X82087440Y-97597000D01*
X82067291Y-97489920D01*
X82075000Y-97471310D01*
X82075000Y-97280750D01*
X81916250Y-97122000D01*
X81869610Y-97122000D01*
X81691890Y-97000569D01*
X81676439Y-96997440D01*
X81877594Y-96868000D01*
X81916250Y-96868000D01*
X81979250Y-96805000D01*
X82395198Y-96805000D01*
X82647599Y-97057401D01*
X82647599Y-97057401D01*
G37*
X82647599Y-97057401D02*
X82894160Y-97222148D01*
X82942414Y-97231746D01*
X83185000Y-97280000D01*
X83454710Y-97280000D01*
X83442560Y-97340000D01*
X83442560Y-97727638D01*
X79695198Y-101475000D01*
X78739802Y-101475000D01*
X78547002Y-101282200D01*
X78547002Y-101181252D01*
X78705750Y-101340000D01*
X79146309Y-101340000D01*
X79379698Y-101243327D01*
X79558327Y-101064699D01*
X79655000Y-100831310D01*
X79655000Y-100615750D01*
X79496250Y-100457000D01*
X78547000Y-100457000D01*
X78547000Y-100477000D01*
X78293000Y-100477000D01*
X78293000Y-100457000D01*
X78273000Y-100457000D01*
X78273000Y-100203000D01*
X78293000Y-100203000D01*
X78293000Y-99478750D01*
X78547000Y-99478750D01*
X78547000Y-100203000D01*
X79496250Y-100203000D01*
X79655000Y-100044250D01*
X79655000Y-99828690D01*
X79558327Y-99595301D01*
X79379698Y-99416673D01*
X79146309Y-99320000D01*
X78705750Y-99320000D01*
X78547000Y-99478750D01*
X78293000Y-99478750D01*
X78134250Y-99320000D01*
X77693691Y-99320000D01*
X77460302Y-99416673D01*
X77458932Y-99418043D01*
X77371890Y-99358569D01*
X77280000Y-99339961D01*
X77280000Y-98897149D01*
X77491441Y-98761090D01*
X77605056Y-98594808D01*
X77918201Y-98724838D01*
X78290167Y-98725162D01*
X78633943Y-98583117D01*
X78897192Y-98320327D01*
X79039838Y-97976799D01*
X79039910Y-97894712D01*
X79629599Y-98484401D01*
X79876160Y-98649148D01*
X79917280Y-98657327D01*
X79975910Y-98748441D01*
X80188110Y-98893431D01*
X80440000Y-98944440D01*
X81440000Y-98944440D01*
X81675317Y-98900162D01*
X81891441Y-98761090D01*
X82036431Y-98548890D01*
X82087440Y-98297000D01*
X82087440Y-97597000D01*
X82067291Y-97489920D01*
X82075000Y-97471310D01*
X82075000Y-97280750D01*
X81916250Y-97122000D01*
X81869610Y-97122000D01*
X81691890Y-97000569D01*
X81676439Y-96997440D01*
X81877594Y-96868000D01*
X81916250Y-96868000D01*
X81979250Y-96805000D01*
X82395198Y-96805000D01*
X82647599Y-97057401D01*
G36*
X41372599Y-75027599D02*
X41207852Y-75274161D01*
X41150000Y-75565000D01*
X41150000Y-78425198D01*
X41135320Y-78439878D01*
X41089833Y-78439838D01*
X40746057Y-78581883D01*
X40482808Y-78844673D01*
X40340162Y-79188201D01*
X40339838Y-79560167D01*
X40481883Y-79903943D01*
X40515000Y-79937118D01*
X40515000Y-88900000D01*
X40572852Y-89190839D01*
X40737599Y-89437401D01*
X42007599Y-90707401D01*
X42254160Y-90872148D01*
X42545000Y-90930000D01*
X62550198Y-90930000D01*
X62740000Y-91119802D01*
X62740000Y-91212560D01*
X62650000Y-91212560D01*
X62414683Y-91256838D01*
X62198559Y-91395910D01*
X62053569Y-91608110D01*
X62039914Y-91675541D01*
X62010054Y-91630853D01*
X61528285Y-91308946D01*
X60960000Y-91195907D01*
X60391715Y-91308946D01*
X59909946Y-91630853D01*
X59682298Y-91971553D01*
X59615183Y-91828642D01*
X59186924Y-91438355D01*
X58776890Y-91268524D01*
X58547000Y-91389845D01*
X58547000Y-92583000D01*
X58567000Y-92583000D01*
X58567000Y-92837000D01*
X58547000Y-92837000D01*
X58547000Y-94030155D01*
X58776890Y-94151476D01*
X59186924Y-93981645D01*
X59615183Y-93591358D01*
X59682298Y-93448447D01*
X59909946Y-93789147D01*
X60391715Y-94111054D01*
X60960000Y-94224093D01*
X61528285Y-94111054D01*
X62010054Y-93789147D01*
X62037850Y-93747548D01*
X62046838Y-93795317D01*
X62185910Y-94011441D01*
X62398110Y-94156431D01*
X62650000Y-94207440D01*
X63515604Y-94207440D01*
X63472560Y-94420000D01*
X63472560Y-95920000D01*
X63516838Y-96155317D01*
X63655910Y-96371441D01*
X63868110Y-96516431D01*
X63881197Y-96519081D01*
X63668559Y-96655910D01*
X63523569Y-96868110D01*
X63472560Y-97120000D01*
X63472560Y-98620000D01*
X63516838Y-98855317D01*
X63655910Y-99071441D01*
X63868110Y-99216431D01*
X64010000Y-99245164D01*
X64010000Y-99695000D01*
X64067852Y-99985839D01*
X64232599Y-100232401D01*
X64840198Y-100840000D01*
X63814802Y-100840000D01*
X62767401Y-99792599D01*
X62520839Y-99627852D01*
X62230000Y-99570000D01*
X40319802Y-99570000D01*
X36320000Y-95570198D01*
X36320000Y-93066892D01*
X54438514Y-93066892D01*
X54684817Y-93591358D01*
X55113076Y-93981645D01*
X55523110Y-94151476D01*
X55753000Y-94030155D01*
X55753000Y-92837000D01*
X56007000Y-92837000D01*
X56007000Y-94030155D01*
X56236890Y-94151476D01*
X56646924Y-93981645D01*
X57075183Y-93591358D01*
X57150000Y-93432046D01*
X57224817Y-93591358D01*
X57653076Y-93981645D01*
X58063110Y-94151476D01*
X58293000Y-94030155D01*
X58293000Y-92837000D01*
X56007000Y-92837000D01*
X55753000Y-92837000D01*
X54559181Y-92837000D01*
X54438514Y-93066892D01*
X36320000Y-93066892D01*
X36320000Y-92353108D01*
X54438514Y-92353108D01*
X54559181Y-92583000D01*
X55753000Y-92583000D01*
X55753000Y-91389845D01*
X56007000Y-91389845D01*
X56007000Y-92583000D01*
X58293000Y-92583000D01*
X58293000Y-91389845D01*
X58063110Y-91268524D01*
X57653076Y-91438355D01*
X57224817Y-91828642D01*
X57150000Y-91987954D01*
X57075183Y-91828642D01*
X56646924Y-91438355D01*
X56236890Y-91268524D01*
X56007000Y-91389845D01*
X55753000Y-91389845D01*
X55523110Y-91268524D01*
X55113076Y-91438355D01*
X54684817Y-91828642D01*
X54438514Y-92353108D01*
X36320000Y-92353108D01*
X36320000Y-73825633D01*
X36643201Y-73959838D01*
X37015167Y-73960162D01*
X37358943Y-73818117D01*
X37392118Y-73785000D01*
X40077537Y-73785000D01*
X40109673Y-73817192D01*
X40453201Y-73959838D01*
X40825167Y-73960162D01*
X41168943Y-73818117D01*
X41432192Y-73555327D01*
X41574838Y-73211799D01*
X41574890Y-73152000D01*
X43248198Y-73152000D01*
X41372599Y-75027599D01*
X41372599Y-75027599D01*
G37*
X41372599Y-75027599D02*
X41207852Y-75274161D01*
X41150000Y-75565000D01*
X41150000Y-78425198D01*
X41135320Y-78439878D01*
X41089833Y-78439838D01*
X40746057Y-78581883D01*
X40482808Y-78844673D01*
X40340162Y-79188201D01*
X40339838Y-79560167D01*
X40481883Y-79903943D01*
X40515000Y-79937118D01*
X40515000Y-88900000D01*
X40572852Y-89190839D01*
X40737599Y-89437401D01*
X42007599Y-90707401D01*
X42254160Y-90872148D01*
X42545000Y-90930000D01*
X62550198Y-90930000D01*
X62740000Y-91119802D01*
X62740000Y-91212560D01*
X62650000Y-91212560D01*
X62414683Y-91256838D01*
X62198559Y-91395910D01*
X62053569Y-91608110D01*
X62039914Y-91675541D01*
X62010054Y-91630853D01*
X61528285Y-91308946D01*
X60960000Y-91195907D01*
X60391715Y-91308946D01*
X59909946Y-91630853D01*
X59682298Y-91971553D01*
X59615183Y-91828642D01*
X59186924Y-91438355D01*
X58776890Y-91268524D01*
X58547000Y-91389845D01*
X58547000Y-92583000D01*
X58567000Y-92583000D01*
X58567000Y-92837000D01*
X58547000Y-92837000D01*
X58547000Y-94030155D01*
X58776890Y-94151476D01*
X59186924Y-93981645D01*
X59615183Y-93591358D01*
X59682298Y-93448447D01*
X59909946Y-93789147D01*
X60391715Y-94111054D01*
X60960000Y-94224093D01*
X61528285Y-94111054D01*
X62010054Y-93789147D01*
X62037850Y-93747548D01*
X62046838Y-93795317D01*
X62185910Y-94011441D01*
X62398110Y-94156431D01*
X62650000Y-94207440D01*
X63515604Y-94207440D01*
X63472560Y-94420000D01*
X63472560Y-95920000D01*
X63516838Y-96155317D01*
X63655910Y-96371441D01*
X63868110Y-96516431D01*
X63881197Y-96519081D01*
X63668559Y-96655910D01*
X63523569Y-96868110D01*
X63472560Y-97120000D01*
X63472560Y-98620000D01*
X63516838Y-98855317D01*
X63655910Y-99071441D01*
X63868110Y-99216431D01*
X64010000Y-99245164D01*
X64010000Y-99695000D01*
X64067852Y-99985839D01*
X64232599Y-100232401D01*
X64840198Y-100840000D01*
X63814802Y-100840000D01*
X62767401Y-99792599D01*
X62520839Y-99627852D01*
X62230000Y-99570000D01*
X40319802Y-99570000D01*
X36320000Y-95570198D01*
X36320000Y-93066892D01*
X54438514Y-93066892D01*
X54684817Y-93591358D01*
X55113076Y-93981645D01*
X55523110Y-94151476D01*
X55753000Y-94030155D01*
X55753000Y-92837000D01*
X56007000Y-92837000D01*
X56007000Y-94030155D01*
X56236890Y-94151476D01*
X56646924Y-93981645D01*
X57075183Y-93591358D01*
X57150000Y-93432046D01*
X57224817Y-93591358D01*
X57653076Y-93981645D01*
X58063110Y-94151476D01*
X58293000Y-94030155D01*
X58293000Y-92837000D01*
X56007000Y-92837000D01*
X55753000Y-92837000D01*
X54559181Y-92837000D01*
X54438514Y-93066892D01*
X36320000Y-93066892D01*
X36320000Y-92353108D01*
X54438514Y-92353108D01*
X54559181Y-92583000D01*
X55753000Y-92583000D01*
X55753000Y-91389845D01*
X56007000Y-91389845D01*
X56007000Y-92583000D01*
X58293000Y-92583000D01*
X58293000Y-91389845D01*
X58063110Y-91268524D01*
X57653076Y-91438355D01*
X57224817Y-91828642D01*
X57150000Y-91987954D01*
X57075183Y-91828642D01*
X56646924Y-91438355D01*
X56236890Y-91268524D01*
X56007000Y-91389845D01*
X55753000Y-91389845D01*
X55523110Y-91268524D01*
X55113076Y-91438355D01*
X54684817Y-91828642D01*
X54438514Y-92353108D01*
X36320000Y-92353108D01*
X36320000Y-73825633D01*
X36643201Y-73959838D01*
X37015167Y-73960162D01*
X37358943Y-73818117D01*
X37392118Y-73785000D01*
X40077537Y-73785000D01*
X40109673Y-73817192D01*
X40453201Y-73959838D01*
X40825167Y-73960162D01*
X41168943Y-73818117D01*
X41432192Y-73555327D01*
X41574838Y-73211799D01*
X41574890Y-73152000D01*
X43248198Y-73152000D01*
X41372599Y-75027599D01*
M02*
