M48
;DRILL file {KiCad 4.0.6} date 01/12/18 22:04:12
;FORMAT={-:-/ absolute / inch / decimal}
FMAT,2
INCH,TZ
T1C0.016
T2C0.020
T3C0.022
T4C0.026
T5C0.039
%
G90
G05
M72
T1
X1.23Y-2.9
X1.34Y-2.94
X1.35Y-2.89
X1.36Y-3.09
X1.45Y-2.875
X1.45Y-3.17
X1.5Y-2.4
X1.525Y-1.7
X1.53Y-1.85
X1.53Y-2.44
X1.55Y-3.
X1.6Y-2.025
X1.6Y-2.875
X1.62Y-1.85
X1.625Y-1.7
X1.625Y-1.775
X1.625Y-3.125
X1.66Y-1.31
X1.69Y-2.78
X1.72Y-2.85
X1.725Y-3.1
X1.775Y-2.025
X1.8Y-2.875
X1.81Y-2.61
X1.81Y-2.7
X1.825Y-2.075
X1.925Y-2.675
X1.925Y-3.
X1.975Y-1.89
X2.05Y-4.
X2.14Y-1.28
X2.25Y-1.89
X2.25Y-2.75
X2.26Y-1.8
X2.3Y-2.38
X2.3Y-3.
X2.35Y-1.75
X2.375Y-1.525
X2.44Y-1.83
X2.5Y-2.9
X2.5Y-3.
X2.51Y-2.79
X2.65Y-1.75
X2.7Y-2.8
X2.725Y-2.7
X2.725Y-3.1874
X2.74Y-2.5
X2.75Y-2.825
X2.775Y-3.65
X2.775Y-3.75
X2.8Y-2.95
X2.81Y-1.3
X2.82Y-3.62
X2.83Y-3.13
X2.85Y-2.825
X2.86Y-2.47
X2.875Y-2.1
X2.9Y-1.4
X2.9Y-3.575
X2.9Y-3.925
X2.975Y-3.
X2.975Y-3.15
X3.Y-2.15
X3.Y-2.45
X3.Y-2.75
X3.04Y-2.11
X3.075Y-3.85
X3.1Y-1.8
X3.1Y-2.45
X3.1Y-3.55
X3.13Y-2.11
X3.15Y-3.95
X3.15Y-4.08
X3.175Y-3.65
X3.2Y-1.8
X3.225Y-2.375
X3.225Y-2.425
X3.3Y-1.475
T2
X1.6Y-2.025
X1.9Y-1.925
X2.375Y-2.35
X2.5Y-2.35
X2.5569Y-2.625
X2.5963Y-2.625
X2.6356Y-2.625
X2.675Y-2.625
T4
X2.1Y-1.85
X2.1Y-1.9287
X2.1Y-2.0075
X2.1Y-2.0862
X2.1Y-2.165
X2.1Y-2.2437
X2.1Y-2.3224
X2.1Y-2.4012
X2.1783Y-2.4406
X2.2571Y-2.4406
X2.3358Y-2.4406
X2.4146Y-2.4406
X2.4933Y-2.4406
X2.572Y-2.4406
X2.6512Y-1.85
X2.6512Y-1.9287
X2.6512Y-2.0075
X2.6512Y-2.0862
X2.6512Y-2.165
X2.6512Y-2.2437
X2.6512Y-2.3224
X2.6512Y-2.4012
T5
X1.35Y-4.
X1.45Y-4.
X2.2Y-3.65
X2.3Y-3.65
X2.4Y-3.65
X2.5Y-3.65
X2.9Y-1.55
X3.Y-1.55
X3.1Y-1.55
X3.2Y-1.55
X3.3Y-1.55
X3.3Y-4.
X3.4Y-1.55
X3.4Y-4.
T2
X3.4659Y-2.2622G85X3.4404Y-2.2622
G05
X3.4659Y-2.5378G85X3.4404Y-2.5378
G05
T3
X3.3469Y-2.3075G85X3.3469Y-2.2957
G05
X3.3469Y-2.5043G85X3.3469Y-2.4925
G05
T0
M30
