G04 #@! TF.FileFunction,Legend,Bot*
%FSLAX46Y46*%
G04 Gerber Fmt 4.6, Leading zero omitted, Abs format (unit mm)*
G04 Created by KiCad (PCBNEW 4.0.6) date 01/13/18 12:32:24*
%MOMM*%
%LPD*%
G01*
G04 APERTURE LIST*
%ADD10C,0.100000*%
%ADD11C,0.120000*%
%ADD12C,0.150000*%
G04 APERTURE END LIST*
D10*
D11*
X49715000Y-43190000D02*
X33740000Y-43190000D01*
X33740000Y-43190000D02*
X33740000Y-38090000D01*
X33740000Y-38090000D02*
X49715000Y-38090000D01*
X40925000Y-37430000D02*
X41625000Y-37430000D01*
X41625000Y-36230000D02*
X40925000Y-36230000D01*
X47340000Y-36230000D02*
X46640000Y-36230000D01*
X46640000Y-37430000D02*
X47340000Y-37430000D01*
X58770000Y-46390000D02*
X58070000Y-46390000D01*
X58070000Y-47590000D02*
X58770000Y-47590000D01*
X58770000Y-45120000D02*
X58070000Y-45120000D01*
X58070000Y-46320000D02*
X58770000Y-46320000D01*
X67595000Y-33620000D02*
X68295000Y-33620000D01*
X68295000Y-32420000D02*
X67595000Y-32420000D01*
X67595000Y-34890000D02*
X68295000Y-34890000D01*
X68295000Y-33690000D02*
X67595000Y-33690000D01*
X77120000Y-100930000D02*
X77820000Y-100930000D01*
X77820000Y-99730000D02*
X77120000Y-99730000D01*
X66560000Y-95520000D02*
X66560000Y-98720000D01*
X68060000Y-98720000D02*
X68060000Y-95520000D01*
X68060000Y-98720000D02*
X66560000Y-98720000D01*
X64020000Y-95520000D02*
X64020000Y-98720000D01*
X65520000Y-98720000D02*
X65520000Y-95520000D01*
X65520000Y-98720000D02*
X64020000Y-98720000D01*
X38160000Y-100270000D02*
X38160000Y-102930000D01*
X35560000Y-100270000D02*
X38160000Y-100270000D01*
X35560000Y-102930000D02*
X38160000Y-102930000D01*
X35560000Y-100270000D02*
X35560000Y-102930000D01*
X34290000Y-100270000D02*
X32960000Y-100270000D01*
X32960000Y-100270000D02*
X32960000Y-101600000D01*
X82490000Y-102930000D02*
X82490000Y-100270000D01*
X85090000Y-102930000D02*
X82490000Y-102930000D01*
X85090000Y-100270000D02*
X82490000Y-100270000D01*
X85090000Y-102930000D02*
X85090000Y-100270000D01*
X86360000Y-102930000D02*
X87690000Y-102930000D01*
X87690000Y-102930000D02*
X87690000Y-101600000D01*
X73350000Y-43055000D02*
X74280000Y-43055000D01*
X76510000Y-43055000D02*
X75580000Y-43055000D01*
X76510000Y-43055000D02*
X76510000Y-45215000D01*
X73350000Y-43055000D02*
X73350000Y-44515000D01*
X73350000Y-51310000D02*
X74280000Y-51310000D01*
X76510000Y-51310000D02*
X75580000Y-51310000D01*
X76510000Y-51310000D02*
X76510000Y-53470000D01*
X73350000Y-51310000D02*
X73350000Y-52770000D01*
X74885000Y-77605000D02*
X74885000Y-78605000D01*
X76245000Y-78605000D02*
X76245000Y-77605000D01*
X74430000Y-47670000D02*
X75430000Y-47670000D01*
X75430000Y-46310000D02*
X74430000Y-46310000D01*
X74430000Y-49575000D02*
X75430000Y-49575000D01*
X75430000Y-48215000D02*
X74430000Y-48215000D01*
X85590000Y-94570000D02*
X84590000Y-94570000D01*
X84590000Y-95930000D02*
X85590000Y-95930000D01*
X85590000Y-95840000D02*
X84590000Y-95840000D01*
X84590000Y-97200000D02*
X85590000Y-97200000D01*
X74160000Y-93300000D02*
X73160000Y-93300000D01*
X73160000Y-94660000D02*
X74160000Y-94660000D01*
X74160000Y-94570000D02*
X73160000Y-94570000D01*
X73160000Y-95930000D02*
X74160000Y-95930000D01*
X74160000Y-95840000D02*
X73160000Y-95840000D01*
X73160000Y-97200000D02*
X74160000Y-97200000D01*
X74160000Y-97110000D02*
X73160000Y-97110000D01*
X73160000Y-98470000D02*
X74160000Y-98470000D01*
X40140000Y-102280000D02*
X41140000Y-102280000D01*
X41140000Y-100920000D02*
X40140000Y-100920000D01*
X85590000Y-97110000D02*
X84590000Y-97110000D01*
X84590000Y-98470000D02*
X85590000Y-98470000D01*
X45950000Y-100750000D02*
X45950000Y-102450000D01*
X45950000Y-102450000D02*
X43400000Y-102450000D01*
X45950000Y-100750000D02*
X43400000Y-100750000D01*
X40199000Y-50877000D02*
X41589000Y-50877000D01*
X40199000Y-50877000D02*
X40199000Y-51002000D01*
X41589000Y-50877000D02*
X41589000Y-51002000D01*
X40199000Y-50877000D02*
X40285724Y-50877000D01*
X41502276Y-50877000D02*
X41589000Y-50877000D01*
X40199000Y-51562000D02*
X40199000Y-52247000D01*
X40199000Y-52247000D02*
X40894000Y-52247000D01*
D12*
X65650000Y-40340000D02*
X65075000Y-40340000D01*
X65650000Y-34590000D02*
X65000000Y-34590000D01*
X55000000Y-34590000D02*
X55650000Y-34590000D01*
X55000000Y-40340000D02*
X55650000Y-40340000D01*
X65650000Y-40340000D02*
X65650000Y-34590000D01*
X55000000Y-40340000D02*
X55000000Y-34590000D01*
X65075000Y-40340000D02*
X65075000Y-41940000D01*
D11*
X77090000Y-98670000D02*
X80390000Y-98670000D01*
X81390000Y-94620000D02*
X80540000Y-94620000D01*
X80540000Y-94620000D02*
X80540000Y-94320000D01*
X80540000Y-94320000D02*
X77090000Y-94320000D01*
D12*
X44291191Y-44166190D02*
X44291191Y-44642381D01*
X44624524Y-43642381D02*
X44291191Y-44166190D01*
X43957857Y-43642381D01*
X43100714Y-44642381D02*
X43672143Y-44642381D01*
X43386429Y-44642381D02*
X43386429Y-43642381D01*
X43481667Y-43785238D01*
X43576905Y-43880476D01*
X43672143Y-43928095D01*
X41441666Y-38437143D02*
X41489285Y-38484762D01*
X41632142Y-38532381D01*
X41727380Y-38532381D01*
X41870238Y-38484762D01*
X41965476Y-38389524D01*
X42013095Y-38294286D01*
X42060714Y-38103810D01*
X42060714Y-37960952D01*
X42013095Y-37770476D01*
X41965476Y-37675238D01*
X41870238Y-37580000D01*
X41727380Y-37532381D01*
X41632142Y-37532381D01*
X41489285Y-37580000D01*
X41441666Y-37627619D01*
X40584523Y-37865714D02*
X40584523Y-38532381D01*
X40822619Y-37484762D02*
X41060714Y-38199048D01*
X40441666Y-38199048D01*
X47156666Y-35937143D02*
X47204285Y-35984762D01*
X47347142Y-36032381D01*
X47442380Y-36032381D01*
X47585238Y-35984762D01*
X47680476Y-35889524D01*
X47728095Y-35794286D01*
X47775714Y-35603810D01*
X47775714Y-35460952D01*
X47728095Y-35270476D01*
X47680476Y-35175238D01*
X47585238Y-35080000D01*
X47442380Y-35032381D01*
X47347142Y-35032381D01*
X47204285Y-35080000D01*
X47156666Y-35127619D01*
X46251904Y-35032381D02*
X46728095Y-35032381D01*
X46775714Y-35508571D01*
X46728095Y-35460952D01*
X46632857Y-35413333D01*
X46394761Y-35413333D01*
X46299523Y-35460952D01*
X46251904Y-35508571D01*
X46204285Y-35603810D01*
X46204285Y-35841905D01*
X46251904Y-35937143D01*
X46299523Y-35984762D01*
X46394761Y-36032381D01*
X46632857Y-36032381D01*
X46728095Y-35984762D01*
X46775714Y-35937143D01*
X58586666Y-46097143D02*
X58634285Y-46144762D01*
X58777142Y-46192381D01*
X58872380Y-46192381D01*
X59015238Y-46144762D01*
X59110476Y-46049524D01*
X59158095Y-45954286D01*
X59205714Y-45763810D01*
X59205714Y-45620952D01*
X59158095Y-45430476D01*
X59110476Y-45335238D01*
X59015238Y-45240000D01*
X58872380Y-45192381D01*
X58777142Y-45192381D01*
X58634285Y-45240000D01*
X58586666Y-45287619D01*
X57729523Y-45192381D02*
X57920000Y-45192381D01*
X58015238Y-45240000D01*
X58062857Y-45287619D01*
X58158095Y-45430476D01*
X58205714Y-45620952D01*
X58205714Y-46001905D01*
X58158095Y-46097143D01*
X58110476Y-46144762D01*
X58015238Y-46192381D01*
X57824761Y-46192381D01*
X57729523Y-46144762D01*
X57681904Y-46097143D01*
X57634285Y-46001905D01*
X57634285Y-45763810D01*
X57681904Y-45668571D01*
X57729523Y-45620952D01*
X57824761Y-45573333D01*
X58015238Y-45573333D01*
X58110476Y-45620952D01*
X58158095Y-45668571D01*
X58205714Y-45763810D01*
X58586666Y-44827143D02*
X58634285Y-44874762D01*
X58777142Y-44922381D01*
X58872380Y-44922381D01*
X59015238Y-44874762D01*
X59110476Y-44779524D01*
X59158095Y-44684286D01*
X59205714Y-44493810D01*
X59205714Y-44350952D01*
X59158095Y-44160476D01*
X59110476Y-44065238D01*
X59015238Y-43970000D01*
X58872380Y-43922381D01*
X58777142Y-43922381D01*
X58634285Y-43970000D01*
X58586666Y-44017619D01*
X58253333Y-43922381D02*
X57586666Y-43922381D01*
X58015238Y-44922381D01*
X68111666Y-34627143D02*
X68159285Y-34674762D01*
X68302142Y-34722381D01*
X68397380Y-34722381D01*
X68540238Y-34674762D01*
X68635476Y-34579524D01*
X68683095Y-34484286D01*
X68730714Y-34293810D01*
X68730714Y-34150952D01*
X68683095Y-33960476D01*
X68635476Y-33865238D01*
X68540238Y-33770000D01*
X68397380Y-33722381D01*
X68302142Y-33722381D01*
X68159285Y-33770000D01*
X68111666Y-33817619D01*
X67540238Y-34150952D02*
X67635476Y-34103333D01*
X67683095Y-34055714D01*
X67730714Y-33960476D01*
X67730714Y-33912857D01*
X67683095Y-33817619D01*
X67635476Y-33770000D01*
X67540238Y-33722381D01*
X67349761Y-33722381D01*
X67254523Y-33770000D01*
X67206904Y-33817619D01*
X67159285Y-33912857D01*
X67159285Y-33960476D01*
X67206904Y-34055714D01*
X67254523Y-34103333D01*
X67349761Y-34150952D01*
X67540238Y-34150952D01*
X67635476Y-34198571D01*
X67683095Y-34246190D01*
X67730714Y-34341429D01*
X67730714Y-34531905D01*
X67683095Y-34627143D01*
X67635476Y-34674762D01*
X67540238Y-34722381D01*
X67349761Y-34722381D01*
X67254523Y-34674762D01*
X67206904Y-34627143D01*
X67159285Y-34531905D01*
X67159285Y-34341429D01*
X67206904Y-34246190D01*
X67254523Y-34198571D01*
X67349761Y-34150952D01*
X68111666Y-35897143D02*
X68159285Y-35944762D01*
X68302142Y-35992381D01*
X68397380Y-35992381D01*
X68540238Y-35944762D01*
X68635476Y-35849524D01*
X68683095Y-35754286D01*
X68730714Y-35563810D01*
X68730714Y-35420952D01*
X68683095Y-35230476D01*
X68635476Y-35135238D01*
X68540238Y-35040000D01*
X68397380Y-34992381D01*
X68302142Y-34992381D01*
X68159285Y-35040000D01*
X68111666Y-35087619D01*
X67635476Y-35992381D02*
X67445000Y-35992381D01*
X67349761Y-35944762D01*
X67302142Y-35897143D01*
X67206904Y-35754286D01*
X67159285Y-35563810D01*
X67159285Y-35182857D01*
X67206904Y-35087619D01*
X67254523Y-35040000D01*
X67349761Y-34992381D01*
X67540238Y-34992381D01*
X67635476Y-35040000D01*
X67683095Y-35087619D01*
X67730714Y-35182857D01*
X67730714Y-35420952D01*
X67683095Y-35516190D01*
X67635476Y-35563810D01*
X67540238Y-35611429D01*
X67349761Y-35611429D01*
X67254523Y-35563810D01*
X67206904Y-35516190D01*
X67159285Y-35420952D01*
X78112857Y-101937143D02*
X78160476Y-101984762D01*
X78303333Y-102032381D01*
X78398571Y-102032381D01*
X78541429Y-101984762D01*
X78636667Y-101889524D01*
X78684286Y-101794286D01*
X78731905Y-101603810D01*
X78731905Y-101460952D01*
X78684286Y-101270476D01*
X78636667Y-101175238D01*
X78541429Y-101080000D01*
X78398571Y-101032381D01*
X78303333Y-101032381D01*
X78160476Y-101080000D01*
X78112857Y-101127619D01*
X77160476Y-102032381D02*
X77731905Y-102032381D01*
X77446191Y-102032381D02*
X77446191Y-101032381D01*
X77541429Y-101175238D01*
X77636667Y-101270476D01*
X77731905Y-101318095D01*
X76827143Y-101032381D02*
X76160476Y-101032381D01*
X76589048Y-102032381D01*
X69462381Y-95781905D02*
X68462381Y-95781905D01*
X68462381Y-96020000D01*
X68510000Y-96162858D01*
X68605238Y-96258096D01*
X68700476Y-96305715D01*
X68890952Y-96353334D01*
X69033810Y-96353334D01*
X69224286Y-96305715D01*
X69319524Y-96258096D01*
X69414762Y-96162858D01*
X69462381Y-96020000D01*
X69462381Y-95781905D01*
X68462381Y-96686667D02*
X68462381Y-97305715D01*
X68843333Y-96972381D01*
X68843333Y-97115239D01*
X68890952Y-97210477D01*
X68938571Y-97258096D01*
X69033810Y-97305715D01*
X69271905Y-97305715D01*
X69367143Y-97258096D01*
X69414762Y-97210477D01*
X69462381Y-97115239D01*
X69462381Y-96829524D01*
X69414762Y-96734286D01*
X69367143Y-96686667D01*
X66922381Y-95781905D02*
X65922381Y-95781905D01*
X65922381Y-96020000D01*
X65970000Y-96162858D01*
X66065238Y-96258096D01*
X66160476Y-96305715D01*
X66350952Y-96353334D01*
X66493810Y-96353334D01*
X66684286Y-96305715D01*
X66779524Y-96258096D01*
X66874762Y-96162858D01*
X66922381Y-96020000D01*
X66922381Y-95781905D01*
X66255714Y-97210477D02*
X66922381Y-97210477D01*
X65874762Y-96972381D02*
X66589048Y-96734286D01*
X66589048Y-97353334D01*
X31412381Y-101266667D02*
X32126667Y-101266667D01*
X32269524Y-101219047D01*
X32364762Y-101123809D01*
X32412381Y-100980952D01*
X32412381Y-100885714D01*
X31745714Y-102171429D02*
X32412381Y-102171429D01*
X31364762Y-101933333D02*
X32079048Y-101695238D01*
X32079048Y-102314286D01*
X88142381Y-101266667D02*
X88856667Y-101266667D01*
X88999524Y-101219047D01*
X89094762Y-101123809D01*
X89142381Y-100980952D01*
X89142381Y-100885714D01*
X88142381Y-102219048D02*
X88142381Y-101742857D01*
X88618571Y-101695238D01*
X88570952Y-101742857D01*
X88523333Y-101838095D01*
X88523333Y-102076191D01*
X88570952Y-102171429D01*
X88618571Y-102219048D01*
X88713810Y-102266667D01*
X88951905Y-102266667D01*
X89047143Y-102219048D01*
X89094762Y-102171429D01*
X89142381Y-102076191D01*
X89142381Y-101838095D01*
X89094762Y-101742857D01*
X89047143Y-101695238D01*
X77977619Y-43719762D02*
X77930000Y-43624524D01*
X77834762Y-43529286D01*
X77691905Y-43386429D01*
X77644286Y-43291190D01*
X77644286Y-43195952D01*
X77882381Y-43243571D02*
X77834762Y-43148333D01*
X77739524Y-43053095D01*
X77549048Y-43005476D01*
X77215714Y-43005476D01*
X77025238Y-43053095D01*
X76930000Y-43148333D01*
X76882381Y-43243571D01*
X76882381Y-43434048D01*
X76930000Y-43529286D01*
X77025238Y-43624524D01*
X77215714Y-43672143D01*
X77549048Y-43672143D01*
X77739524Y-43624524D01*
X77834762Y-43529286D01*
X77882381Y-43434048D01*
X77882381Y-43243571D01*
X77882381Y-44624524D02*
X77882381Y-44053095D01*
X77882381Y-44338809D02*
X76882381Y-44338809D01*
X77025238Y-44243571D01*
X77120476Y-44148333D01*
X77168095Y-44053095D01*
X77977619Y-51974762D02*
X77930000Y-51879524D01*
X77834762Y-51784286D01*
X77691905Y-51641429D01*
X77644286Y-51546190D01*
X77644286Y-51450952D01*
X77882381Y-51498571D02*
X77834762Y-51403333D01*
X77739524Y-51308095D01*
X77549048Y-51260476D01*
X77215714Y-51260476D01*
X77025238Y-51308095D01*
X76930000Y-51403333D01*
X76882381Y-51498571D01*
X76882381Y-51689048D01*
X76930000Y-51784286D01*
X77025238Y-51879524D01*
X77215714Y-51927143D01*
X77549048Y-51927143D01*
X77739524Y-51879524D01*
X77834762Y-51784286D01*
X77882381Y-51689048D01*
X77882381Y-51498571D01*
X76977619Y-52308095D02*
X76930000Y-52355714D01*
X76882381Y-52450952D01*
X76882381Y-52689048D01*
X76930000Y-52784286D01*
X76977619Y-52831905D01*
X77072857Y-52879524D01*
X77168095Y-52879524D01*
X77310952Y-52831905D01*
X77882381Y-52260476D01*
X77882381Y-52879524D01*
X77467381Y-77938334D02*
X76991190Y-77605000D01*
X77467381Y-77366905D02*
X76467381Y-77366905D01*
X76467381Y-77747858D01*
X76515000Y-77843096D01*
X76562619Y-77890715D01*
X76657857Y-77938334D01*
X76800714Y-77938334D01*
X76895952Y-77890715D01*
X76943571Y-77843096D01*
X76991190Y-77747858D01*
X76991190Y-77366905D01*
X76562619Y-78319286D02*
X76515000Y-78366905D01*
X76467381Y-78462143D01*
X76467381Y-78700239D01*
X76515000Y-78795477D01*
X76562619Y-78843096D01*
X76657857Y-78890715D01*
X76753095Y-78890715D01*
X76895952Y-78843096D01*
X77467381Y-78271667D01*
X77467381Y-78890715D01*
X75096666Y-45992381D02*
X75430000Y-45516190D01*
X75668095Y-45992381D02*
X75668095Y-44992381D01*
X75287142Y-44992381D01*
X75191904Y-45040000D01*
X75144285Y-45087619D01*
X75096666Y-45182857D01*
X75096666Y-45325714D01*
X75144285Y-45420952D01*
X75191904Y-45468571D01*
X75287142Y-45516190D01*
X75668095Y-45516190D01*
X74239523Y-45325714D02*
X74239523Y-45992381D01*
X74477619Y-44944762D02*
X74715714Y-45659048D01*
X74096666Y-45659048D01*
X75096666Y-47897381D02*
X75430000Y-47421190D01*
X75668095Y-47897381D02*
X75668095Y-46897381D01*
X75287142Y-46897381D01*
X75191904Y-46945000D01*
X75144285Y-46992619D01*
X75096666Y-47087857D01*
X75096666Y-47230714D01*
X75144285Y-47325952D01*
X75191904Y-47373571D01*
X75287142Y-47421190D01*
X75668095Y-47421190D01*
X74191904Y-46897381D02*
X74668095Y-46897381D01*
X74715714Y-47373571D01*
X74668095Y-47325952D01*
X74572857Y-47278333D01*
X74334761Y-47278333D01*
X74239523Y-47325952D01*
X74191904Y-47373571D01*
X74144285Y-47468810D01*
X74144285Y-47706905D01*
X74191904Y-47802143D01*
X74239523Y-47849762D01*
X74334761Y-47897381D01*
X74572857Y-47897381D01*
X74668095Y-47849762D01*
X74715714Y-47802143D01*
X85732857Y-97152381D02*
X86066191Y-96676190D01*
X86304286Y-97152381D02*
X86304286Y-96152381D01*
X85923333Y-96152381D01*
X85828095Y-96200000D01*
X85780476Y-96247619D01*
X85732857Y-96342857D01*
X85732857Y-96485714D01*
X85780476Y-96580952D01*
X85828095Y-96628571D01*
X85923333Y-96676190D01*
X86304286Y-96676190D01*
X84780476Y-97152381D02*
X85351905Y-97152381D01*
X85066191Y-97152381D02*
X85066191Y-96152381D01*
X85161429Y-96295238D01*
X85256667Y-96390476D01*
X85351905Y-96438095D01*
X83923333Y-96152381D02*
X84113810Y-96152381D01*
X84209048Y-96200000D01*
X84256667Y-96247619D01*
X84351905Y-96390476D01*
X84399524Y-96580952D01*
X84399524Y-96961905D01*
X84351905Y-97057143D01*
X84304286Y-97104762D01*
X84209048Y-97152381D01*
X84018571Y-97152381D01*
X83923333Y-97104762D01*
X83875714Y-97057143D01*
X83828095Y-96961905D01*
X83828095Y-96723810D01*
X83875714Y-96628571D01*
X83923333Y-96580952D01*
X84018571Y-96533333D01*
X84209048Y-96533333D01*
X84304286Y-96580952D01*
X84351905Y-96628571D01*
X84399524Y-96723810D01*
X85732857Y-98422381D02*
X86066191Y-97946190D01*
X86304286Y-98422381D02*
X86304286Y-97422381D01*
X85923333Y-97422381D01*
X85828095Y-97470000D01*
X85780476Y-97517619D01*
X85732857Y-97612857D01*
X85732857Y-97755714D01*
X85780476Y-97850952D01*
X85828095Y-97898571D01*
X85923333Y-97946190D01*
X86304286Y-97946190D01*
X84780476Y-98422381D02*
X85351905Y-98422381D01*
X85066191Y-98422381D02*
X85066191Y-97422381D01*
X85161429Y-97565238D01*
X85256667Y-97660476D01*
X85351905Y-97708095D01*
X84447143Y-97422381D02*
X83780476Y-97422381D01*
X84209048Y-98422381D01*
X74302857Y-95882381D02*
X74636191Y-95406190D01*
X74874286Y-95882381D02*
X74874286Y-94882381D01*
X74493333Y-94882381D01*
X74398095Y-94930000D01*
X74350476Y-94977619D01*
X74302857Y-95072857D01*
X74302857Y-95215714D01*
X74350476Y-95310952D01*
X74398095Y-95358571D01*
X74493333Y-95406190D01*
X74874286Y-95406190D01*
X73350476Y-95882381D02*
X73921905Y-95882381D01*
X73636191Y-95882381D02*
X73636191Y-94882381D01*
X73731429Y-95025238D01*
X73826667Y-95120476D01*
X73921905Y-95168095D01*
X72779048Y-95310952D02*
X72874286Y-95263333D01*
X72921905Y-95215714D01*
X72969524Y-95120476D01*
X72969524Y-95072857D01*
X72921905Y-94977619D01*
X72874286Y-94930000D01*
X72779048Y-94882381D01*
X72588571Y-94882381D01*
X72493333Y-94930000D01*
X72445714Y-94977619D01*
X72398095Y-95072857D01*
X72398095Y-95120476D01*
X72445714Y-95215714D01*
X72493333Y-95263333D01*
X72588571Y-95310952D01*
X72779048Y-95310952D01*
X72874286Y-95358571D01*
X72921905Y-95406190D01*
X72969524Y-95501429D01*
X72969524Y-95691905D01*
X72921905Y-95787143D01*
X72874286Y-95834762D01*
X72779048Y-95882381D01*
X72588571Y-95882381D01*
X72493333Y-95834762D01*
X72445714Y-95787143D01*
X72398095Y-95691905D01*
X72398095Y-95501429D01*
X72445714Y-95406190D01*
X72493333Y-95358571D01*
X72588571Y-95310952D01*
X74302857Y-97152381D02*
X74636191Y-96676190D01*
X74874286Y-97152381D02*
X74874286Y-96152381D01*
X74493333Y-96152381D01*
X74398095Y-96200000D01*
X74350476Y-96247619D01*
X74302857Y-96342857D01*
X74302857Y-96485714D01*
X74350476Y-96580952D01*
X74398095Y-96628571D01*
X74493333Y-96676190D01*
X74874286Y-96676190D01*
X73350476Y-97152381D02*
X73921905Y-97152381D01*
X73636191Y-97152381D02*
X73636191Y-96152381D01*
X73731429Y-96295238D01*
X73826667Y-96390476D01*
X73921905Y-96438095D01*
X72874286Y-97152381D02*
X72683810Y-97152381D01*
X72588571Y-97104762D01*
X72540952Y-97057143D01*
X72445714Y-96914286D01*
X72398095Y-96723810D01*
X72398095Y-96342857D01*
X72445714Y-96247619D01*
X72493333Y-96200000D01*
X72588571Y-96152381D01*
X72779048Y-96152381D01*
X72874286Y-96200000D01*
X72921905Y-96247619D01*
X72969524Y-96342857D01*
X72969524Y-96580952D01*
X72921905Y-96676190D01*
X72874286Y-96723810D01*
X72779048Y-96771429D01*
X72588571Y-96771429D01*
X72493333Y-96723810D01*
X72445714Y-96676190D01*
X72398095Y-96580952D01*
X74302857Y-98422381D02*
X74636191Y-97946190D01*
X74874286Y-98422381D02*
X74874286Y-97422381D01*
X74493333Y-97422381D01*
X74398095Y-97470000D01*
X74350476Y-97517619D01*
X74302857Y-97612857D01*
X74302857Y-97755714D01*
X74350476Y-97850952D01*
X74398095Y-97898571D01*
X74493333Y-97946190D01*
X74874286Y-97946190D01*
X73921905Y-97517619D02*
X73874286Y-97470000D01*
X73779048Y-97422381D01*
X73540952Y-97422381D01*
X73445714Y-97470000D01*
X73398095Y-97517619D01*
X73350476Y-97612857D01*
X73350476Y-97708095D01*
X73398095Y-97850952D01*
X73969524Y-98422381D01*
X73350476Y-98422381D01*
X72731429Y-97422381D02*
X72636190Y-97422381D01*
X72540952Y-97470000D01*
X72493333Y-97517619D01*
X72445714Y-97612857D01*
X72398095Y-97803333D01*
X72398095Y-98041429D01*
X72445714Y-98231905D01*
X72493333Y-98327143D01*
X72540952Y-98374762D01*
X72636190Y-98422381D01*
X72731429Y-98422381D01*
X72826667Y-98374762D01*
X72874286Y-98327143D01*
X72921905Y-98231905D01*
X72969524Y-98041429D01*
X72969524Y-97803333D01*
X72921905Y-97612857D01*
X72874286Y-97517619D01*
X72826667Y-97470000D01*
X72731429Y-97422381D01*
X74302857Y-99692381D02*
X74636191Y-99216190D01*
X74874286Y-99692381D02*
X74874286Y-98692381D01*
X74493333Y-98692381D01*
X74398095Y-98740000D01*
X74350476Y-98787619D01*
X74302857Y-98882857D01*
X74302857Y-99025714D01*
X74350476Y-99120952D01*
X74398095Y-99168571D01*
X74493333Y-99216190D01*
X74874286Y-99216190D01*
X73921905Y-98787619D02*
X73874286Y-98740000D01*
X73779048Y-98692381D01*
X73540952Y-98692381D01*
X73445714Y-98740000D01*
X73398095Y-98787619D01*
X73350476Y-98882857D01*
X73350476Y-98978095D01*
X73398095Y-99120952D01*
X73969524Y-99692381D01*
X73350476Y-99692381D01*
X72398095Y-99692381D02*
X72969524Y-99692381D01*
X72683810Y-99692381D02*
X72683810Y-98692381D01*
X72779048Y-98835238D01*
X72874286Y-98930476D01*
X72969524Y-98978095D01*
X41282857Y-100602381D02*
X41616191Y-100126190D01*
X41854286Y-100602381D02*
X41854286Y-99602381D01*
X41473333Y-99602381D01*
X41378095Y-99650000D01*
X41330476Y-99697619D01*
X41282857Y-99792857D01*
X41282857Y-99935714D01*
X41330476Y-100030952D01*
X41378095Y-100078571D01*
X41473333Y-100126190D01*
X41854286Y-100126190D01*
X40901905Y-99697619D02*
X40854286Y-99650000D01*
X40759048Y-99602381D01*
X40520952Y-99602381D01*
X40425714Y-99650000D01*
X40378095Y-99697619D01*
X40330476Y-99792857D01*
X40330476Y-99888095D01*
X40378095Y-100030952D01*
X40949524Y-100602381D01*
X40330476Y-100602381D01*
X39949524Y-99697619D02*
X39901905Y-99650000D01*
X39806667Y-99602381D01*
X39568571Y-99602381D01*
X39473333Y-99650000D01*
X39425714Y-99697619D01*
X39378095Y-99792857D01*
X39378095Y-99888095D01*
X39425714Y-100030952D01*
X39997143Y-100602381D01*
X39378095Y-100602381D01*
X85732857Y-99692381D02*
X86066191Y-99216190D01*
X86304286Y-99692381D02*
X86304286Y-98692381D01*
X85923333Y-98692381D01*
X85828095Y-98740000D01*
X85780476Y-98787619D01*
X85732857Y-98882857D01*
X85732857Y-99025714D01*
X85780476Y-99120952D01*
X85828095Y-99168571D01*
X85923333Y-99216190D01*
X86304286Y-99216190D01*
X85351905Y-98787619D02*
X85304286Y-98740000D01*
X85209048Y-98692381D01*
X84970952Y-98692381D01*
X84875714Y-98740000D01*
X84828095Y-98787619D01*
X84780476Y-98882857D01*
X84780476Y-98978095D01*
X84828095Y-99120952D01*
X85399524Y-99692381D01*
X84780476Y-99692381D01*
X83875714Y-98692381D02*
X84351905Y-98692381D01*
X84399524Y-99168571D01*
X84351905Y-99120952D01*
X84256667Y-99073333D01*
X84018571Y-99073333D01*
X83923333Y-99120952D01*
X83875714Y-99168571D01*
X83828095Y-99263810D01*
X83828095Y-99501905D01*
X83875714Y-99597143D01*
X83923333Y-99644762D01*
X84018571Y-99692381D01*
X84256667Y-99692381D01*
X84351905Y-99644762D01*
X84399524Y-99597143D01*
X48021428Y-100202381D02*
X48354762Y-99726190D01*
X48592857Y-100202381D02*
X48592857Y-99202381D01*
X48211904Y-99202381D01*
X48116666Y-99250000D01*
X48069047Y-99297619D01*
X48021428Y-99392857D01*
X48021428Y-99535714D01*
X48069047Y-99630952D01*
X48116666Y-99678571D01*
X48211904Y-99726190D01*
X48592857Y-99726190D01*
X47259523Y-99678571D02*
X47116666Y-99726190D01*
X47069047Y-99773810D01*
X47021428Y-99869048D01*
X47021428Y-100011905D01*
X47069047Y-100107143D01*
X47116666Y-100154762D01*
X47211904Y-100202381D01*
X47592857Y-100202381D01*
X47592857Y-99202381D01*
X47259523Y-99202381D01*
X47164285Y-99250000D01*
X47116666Y-99297619D01*
X47069047Y-99392857D01*
X47069047Y-99488095D01*
X47116666Y-99583333D01*
X47164285Y-99630952D01*
X47259523Y-99678571D01*
X47592857Y-99678571D01*
X46116666Y-99202381D02*
X46592857Y-99202381D01*
X46640476Y-99678571D01*
X46592857Y-99630952D01*
X46497619Y-99583333D01*
X46259523Y-99583333D01*
X46164285Y-99630952D01*
X46116666Y-99678571D01*
X46069047Y-99773810D01*
X46069047Y-100011905D01*
X46116666Y-100107143D01*
X46164285Y-100154762D01*
X46259523Y-100202381D01*
X46497619Y-100202381D01*
X46592857Y-100154762D01*
X46640476Y-100107143D01*
X45164285Y-99202381D02*
X45640476Y-99202381D01*
X45688095Y-99678571D01*
X45640476Y-99630952D01*
X45545238Y-99583333D01*
X45307142Y-99583333D01*
X45211904Y-99630952D01*
X45164285Y-99678571D01*
X45116666Y-99773810D01*
X45116666Y-100011905D01*
X45164285Y-100107143D01*
X45211904Y-100154762D01*
X45307142Y-100202381D01*
X45545238Y-100202381D01*
X45640476Y-100154762D01*
X45688095Y-100107143D01*
X44164285Y-100202381D02*
X44735714Y-100202381D01*
X44450000Y-100202381D02*
X44450000Y-99202381D01*
X44545238Y-99345238D01*
X44640476Y-99440476D01*
X44735714Y-99488095D01*
X43830952Y-99535714D02*
X43592857Y-100202381D01*
X43354761Y-99535714D01*
X42973809Y-99821429D02*
X42211904Y-99821429D01*
X41830952Y-99202381D02*
X41211904Y-99202381D01*
X41545238Y-99583333D01*
X41402380Y-99583333D01*
X41307142Y-99630952D01*
X41259523Y-99678571D01*
X41211904Y-99773810D01*
X41211904Y-100011905D01*
X41259523Y-100107143D01*
X41307142Y-100154762D01*
X41402380Y-100202381D01*
X41688095Y-100202381D01*
X41783333Y-100154762D01*
X41830952Y-100107143D01*
X40592857Y-99202381D02*
X40497618Y-99202381D01*
X40402380Y-99250000D01*
X40354761Y-99297619D01*
X40307142Y-99392857D01*
X40259523Y-99583333D01*
X40259523Y-99821429D01*
X40307142Y-100011905D01*
X40354761Y-100107143D01*
X40402380Y-100154762D01*
X40497618Y-100202381D01*
X40592857Y-100202381D01*
X40688095Y-100154762D01*
X40735714Y-100107143D01*
X40783333Y-100011905D01*
X40830952Y-99821429D01*
X40830952Y-99583333D01*
X40783333Y-99392857D01*
X40735714Y-99297619D01*
X40688095Y-99250000D01*
X40592857Y-99202381D01*
X42155905Y-52574381D02*
X41584476Y-52574381D01*
X41870191Y-53574381D02*
X41870191Y-52574381D01*
X41251143Y-53574381D02*
X41251143Y-52574381D01*
X40870190Y-52574381D01*
X40774952Y-52622000D01*
X40727333Y-52669619D01*
X40679714Y-52764857D01*
X40679714Y-52907714D01*
X40727333Y-53002952D01*
X40774952Y-53050571D01*
X40870190Y-53098190D01*
X41251143Y-53098190D01*
X39822571Y-52907714D02*
X39822571Y-53574381D01*
X40060667Y-52526762D02*
X40298762Y-53241048D01*
X39679714Y-53241048D01*
X66027381Y-36703095D02*
X66836905Y-36703095D01*
X66932143Y-36750714D01*
X66979762Y-36798333D01*
X67027381Y-36893571D01*
X67027381Y-37084048D01*
X66979762Y-37179286D01*
X66932143Y-37226905D01*
X66836905Y-37274524D01*
X66027381Y-37274524D01*
X67027381Y-38274524D02*
X67027381Y-37703095D01*
X67027381Y-37988809D02*
X66027381Y-37988809D01*
X66170238Y-37893571D01*
X66265476Y-37798333D01*
X66313095Y-37703095D01*
X79501905Y-93022381D02*
X79501905Y-93831905D01*
X79454286Y-93927143D01*
X79406667Y-93974762D01*
X79311429Y-94022381D01*
X79120952Y-94022381D01*
X79025714Y-93974762D01*
X78978095Y-93927143D01*
X78930476Y-93831905D01*
X78930476Y-93022381D01*
X77978095Y-93022381D02*
X78454286Y-93022381D01*
X78501905Y-93498571D01*
X78454286Y-93450952D01*
X78359048Y-93403333D01*
X78120952Y-93403333D01*
X78025714Y-93450952D01*
X77978095Y-93498571D01*
X77930476Y-93593810D01*
X77930476Y-93831905D01*
X77978095Y-93927143D01*
X78025714Y-93974762D01*
X78120952Y-94022381D01*
X78359048Y-94022381D01*
X78454286Y-93974762D01*
X78501905Y-93927143D01*
M02*
