G04 #@! TF.FileFunction,Soldermask,Bot*
%FSLAX46Y46*%
G04 Gerber Fmt 4.6, Leading zero omitted, Abs format (unit mm)*
G04 Created by KiCad (PCBNEW 4.0.6) date 01/13/18 12:32:24*
%MOMM*%
%LPD*%
G01*
G04 APERTURE LIST*
%ADD10C,0.100000*%
%ADD11R,8.275000X2.400000*%
%ADD12R,1.600000X1.150000*%
%ADD13R,1.700000X1.900000*%
%ADD14R,2.100000X2.100000*%
%ADD15O,2.100000X2.100000*%
%ADD16O,1.350000X1.650000*%
%ADD17O,1.950000X1.400000*%
%ADD18R,1.200000X1.300000*%
%ADD19R,1.300000X0.900000*%
%ADD20R,0.900000X1.300000*%
%ADD21R,1.000000X0.850000*%
%ADD22R,1.250000X1.250000*%
%ADD23R,0.850000X2.150000*%
%ADD24R,2.900000X1.500000*%
%ADD25O,2.900000X1.500000*%
%ADD26O,1.500000X2.900000*%
%ADD27R,1.400000X1.100000*%
G04 APERTURE END LIST*
D10*
D11*
X37877500Y-40640000D03*
X49752500Y-40640000D03*
D12*
X40325000Y-36830000D03*
X42225000Y-36830000D03*
X47940000Y-36830000D03*
X46040000Y-36830000D03*
X59370000Y-46990000D03*
X57470000Y-46990000D03*
X59370000Y-45720000D03*
X57470000Y-45720000D03*
X66995000Y-33020000D03*
X68895000Y-33020000D03*
X66995000Y-34290000D03*
X68895000Y-34290000D03*
X76520000Y-100330000D03*
X78420000Y-100330000D03*
D13*
X67310000Y-97870000D03*
X67310000Y-95170000D03*
X64770000Y-97870000D03*
X64770000Y-95170000D03*
D14*
X63500000Y-92710000D03*
D15*
X60960000Y-92710000D03*
X58420000Y-92710000D03*
X55880000Y-92710000D03*
D14*
X73660000Y-39370000D03*
D15*
X76200000Y-39370000D03*
X78740000Y-39370000D03*
X81280000Y-39370000D03*
X83820000Y-39370000D03*
X86360000Y-39370000D03*
D14*
X34290000Y-101600000D03*
D15*
X36830000Y-101600000D03*
D14*
X86360000Y-101600000D03*
D15*
X83820000Y-101600000D03*
D16*
X85010000Y-63460000D03*
X85010000Y-58460000D03*
D17*
X87710000Y-64460000D03*
X87710000Y-57460000D03*
D18*
X75880000Y-44815000D03*
X73980000Y-44815000D03*
X74930000Y-42815000D03*
X75880000Y-53070000D03*
X73980000Y-53070000D03*
X74930000Y-51070000D03*
D19*
X75565000Y-78855000D03*
X75565000Y-77355000D03*
D20*
X75680000Y-46990000D03*
X74180000Y-46990000D03*
X75680000Y-48895000D03*
X74180000Y-48895000D03*
X84340000Y-95250000D03*
X85840000Y-95250000D03*
X84340000Y-96520000D03*
X85840000Y-96520000D03*
X72910000Y-93980000D03*
X74410000Y-93980000D03*
X72910000Y-95250000D03*
X74410000Y-95250000D03*
X72910000Y-96520000D03*
X74410000Y-96520000D03*
X72910000Y-97790000D03*
X74410000Y-97790000D03*
X41390000Y-101600000D03*
X39890000Y-101600000D03*
X84340000Y-97790000D03*
X85840000Y-97790000D03*
D21*
X45500000Y-101600000D03*
X43400000Y-101600000D03*
D22*
X63500000Y-59690000D03*
X48260000Y-48895000D03*
X60325000Y-59690000D03*
X40894000Y-51562000D03*
D23*
X64550000Y-41065000D03*
X63900000Y-41065000D03*
X63250000Y-41065000D03*
X62600000Y-41065000D03*
X61950000Y-41065000D03*
X61300000Y-41065000D03*
X60650000Y-41065000D03*
X60000000Y-41065000D03*
X59350000Y-41065000D03*
X58700000Y-41065000D03*
X58050000Y-41065000D03*
X57400000Y-41065000D03*
X56750000Y-41065000D03*
X56100000Y-41065000D03*
X56100000Y-33865000D03*
X56750000Y-33865000D03*
X57400000Y-33865000D03*
X58050000Y-33865000D03*
X58700000Y-33865000D03*
X59350000Y-33865000D03*
X60000000Y-33865000D03*
X60650000Y-33865000D03*
X61300000Y-33865000D03*
X61950000Y-33865000D03*
X62600000Y-33865000D03*
X63250000Y-33865000D03*
X63900000Y-33865000D03*
X64550000Y-33865000D03*
D24*
X52640000Y-46990000D03*
D25*
X52640000Y-48990000D03*
X52640000Y-50990000D03*
X52640000Y-52990000D03*
X52640000Y-54990000D03*
X52640000Y-56990000D03*
X52640000Y-58990000D03*
X52640000Y-60990000D03*
X68040000Y-60990000D03*
X67940000Y-58990000D03*
X68040000Y-56990000D03*
X68040000Y-54990000D03*
X68040000Y-52990000D03*
X68040000Y-50990000D03*
X68040000Y-48990000D03*
X68040000Y-46990000D03*
D26*
X55330000Y-62690000D03*
X57330000Y-62690000D03*
X59330000Y-62690000D03*
X61330000Y-62690000D03*
X63330000Y-62690000D03*
X65330000Y-62690000D03*
D27*
X76540000Y-95093000D03*
X76540000Y-96045000D03*
X76540000Y-96995000D03*
X76540000Y-97947000D03*
X80940000Y-97947000D03*
X80940000Y-96995000D03*
X80940000Y-96045000D03*
X80940000Y-95093000D03*
M02*
